<svg xmlns="http://www.w3.org/2000/svg" xmlns:xlink="http://www.w3.org/1999/xlink" width="1920" height="940" viewBox="0 0 1920 940">
  <defs>
    <clipPath id="clip-path">
      <rect id="사각형_5923" data-name="사각형 5923" width="1920" height="940" fill="#fff" stroke="#707070" stroke-width="1"/>
    </clipPath>
    <clipPath id="clip-path-2">
      <rect id="사각형_4751" data-name="사각형 4751" width="60.685" height="58.909" fill="none"/>
    </clipPath>
    <clipPath id="clip-path-3">
      <rect id="사각형_4750" data-name="사각형 4750" width="13.468" height="12.868" fill="none"/>
    </clipPath>
    <clipPath id="clip-path-4">
      <rect id="사각형_5901" data-name="사각형 5901" width="127.192" height="111.647" fill="none"/>
    </clipPath>
    <clipPath id="clip-path-6">
      <rect id="사각형_5903" data-name="사각형 5903" width="108.856" height="169.931" fill="none"/>
    </clipPath>
  </defs>
  <g id="마스크_그룹_5" data-name="마스크 그룹 5" clip-path="url(#clip-path)">
    <g id="after-01" transform="translate(669.929 289.491)">
      <g id="그룹_13693" data-name="그룹 13693" transform="translate(0 0)" clip-path="url(#clip-path-2)">
        <path id="패스_36228" data-name="패스 36228" d="M15.706,47.884a3.609,3.609,0,0,0,2.021-1.157C18.269,46.205,56.877,9,57.9,7.965c.014-.016.031-.03.045-.044-1.331,1.284-3.457.821-4.863-.067a6.386,6.386,0,0,1-2.978-4.46A3.224,3.224,0,0,1,50.95.665C49.84,1.735,9.633,40.591,9.484,41.524c-.426,2.653,1.851,5.372,4.268,6.156a4.35,4.35,0,0,0,1.954.2" transform="translate(1.861 0.131)" fill="#793907"/>
        <path id="패스_36229" data-name="패스 36229" d="M50.376,1.892C48.444-.111,45.7-.6,44.253.8s-1.057,4.155.875,6.158,4.675,2.5,6.123,1.1,1.057-4.156-.875-6.159" transform="translate(8.558 0)" fill="#d28112"/>
        <g id="그룹_13692" data-name="그룹 13692" transform="translate(0 46.041)" style="isolation: isolate">
          <g id="그룹_13691" data-name="그룹 13691">
            <g id="그룹_13690" data-name="그룹 13690" clip-path="url(#clip-path-3)">
              <path id="패스_36230" data-name="패스 36230" d="M12.524,46.475c2.511-1.664-.409-1.085-3.839,1-2.518,1.531.934-1.79,2.615-3.745S9.183,44.775,6.96,45.81s.83-2.135,2.119-4.379-1.711.54-3.594,2.135.138-2.022,1.04-4.115-.515-.613-2.383,1.855c-1.209,1.6-1.113.444-.92-1.085C1.768,43.414,3.975,48.862,0,51.166c2.469.607,7.191-.6,10.935-2.816-.775.089-.353-.59,1.589-1.875" transform="translate(0 -38.454)" fill="#ed7e7b"/>
            </g>
          </g>
        </g>
      </g>
    </g>
    <g id="그룹_16683" data-name="그룹 16683">
      <path id="패스_39412" data-name="패스 39412" d="M24.389,1.76l2.257-.336c3-.293,4.3-.026,4.3,3l.012,4.121L30.1,6.756c-.754-2.088-1.338-2.032-3.631-1.967l-2.07.237.028,9.632c.4.839-.22,2.648-1.449,4.176a6.368,6.368,0,0,1-1.691,1.529c-.718.415-1.34.453-1.651.015-.544-.765.069-2.695,1.372-4.314a6.374,6.374,0,0,1,1.685-1.523,1.861,1.861,0,0,1,1.163-.315L23.821,1.961Z" transform="translate(924.244 252.491)" fill="#646464"/>
      <path id="패스_39413" data-name="패스 39413" d="M19.635,20.378c-.544-.765.069-2.695,1.371-4.314a6.376,6.376,0,0,1,1.686-1.523,1.858,1.858,0,0,1,1.163-.315L23.82,1.961l.569-.2,2.256-.336a5.964,5.964,0,0,1,3.234.232h0L27.625.354,27.6.338l0,0A5.872,5.872,0,0,0,24.338.092L22.081.428l-.568.2.035,12.265a1.863,1.863,0,0,0-1.164.315A6.389,6.389,0,0,0,18.7,14.732c-1.3,1.619-1.915,3.549-1.371,4.314a.7.7,0,0,0,.185.176l0,0,.1.059,0,0,2.3,1.327a.705.705,0,0,1-.281-.236" transform="translate(924.244 252.491)" fill="#4d4d4d"/>
      <path id="패스_39414" data-name="패스 39414" d="M30.1,6.756c-.621-1.721-1.13-1.986-2.573-1.989.088.192.176.408.266.657l.862,1.783,2.254,1.3-.01-.1Z" transform="translate(924.244 252.491)" fill="#4d4d4d"/>
    </g>
    <g id="그룹_16679" data-name="그룹 16679">
      <path id="패스_43661" data-name="패스 43661" d="M82.991,12.176A12.029,12.029,0,1,0,64.668,22.428h0l.04.025.04.024,2.284,1.378a5.724,5.724,0,0,1,2.665,3.822l.892,4.651a.381.381,0,0,0,.749,0l.892-4.651a5.724,5.724,0,0,1,2.665-3.822l2.283-1.378.04-.024.041-.025h0a12.02,12.02,0,0,0,5.736-10.252" transform="translate(798.099 760.491)" fill="#ff5722"/>
      <path id="패스_43662" data-name="패스 43662" d="M75.659,12.176a4.7,4.7,0,1,1-4.7-4.7,4.7,4.7,0,0,1,4.7,4.7" transform="translate(798.099 760.491)" fill="#fff"/>
    </g>
    <g id="그룹_16640" data-name="그룹 16640" transform="translate(1341.887 405.231)">
      <g id="그룹_16637" data-name="그룹 16637">
        <g id="그룹_16636" data-name="그룹 16636" clip-path="url(#clip-path-4)">
          <path id="패스_43665" data-name="패스 43665" d="M19.965,50.828l-.016,33.5A6.163,6.163,0,0,0,22.7,89.161l5.722,3.348a1.945,1.945,0,0,0,1.96.2,2.315,2.315,0,0,0,1.308-1.8L33.9,56.087Z" fill="#dedede"/>
          <path id="패스_43666" data-name="패스 43666" d="M31.22,57.414l-.016,33.5a1.965,1.965,0,0,1-.805,1.794l7.61-4.482a1.968,1.968,0,0,0,.806-1.795l.015-33.5Z" fill="#ebebeb"/>
        </g>
      </g>
      <path id="패스_43667" data-name="패스 43667" d="M33.067,58.6l4.216-2.483,3.451,8.435-4.216,2.482Z" fill="#007fb7"/>
      <path id="패스_43668" data-name="패스 43668" d="M33.067,58.6l3.451,8.434-3.47.166Z" fill="#064e75"/>
      <g id="그룹_16639" data-name="그룹 16639">
        <g id="그룹_16638" data-name="그룹 16638" clip-path="url(#clip-path-4)">
          <path id="패스_43669" data-name="패스 43669" d="M103.653,25.734l-34.1,6.229c5.387-.928,9.3,2.719,9.425,9.7.092,5.123-1.878,10.935-5.03,15.857a28.823,28.823,0,0,1-8.157,8.554q-.3.2-.611.385c-6.264,3.793-11.658,2.289-13.607-3.128l10.9,32.993c4.331,12.036,16.472,16.044,30.389,7.618.455-.275,1.555-.645,2-.939a65.927,65.927,0,0,0,18.688-19.065c7-10.936,11.817-24.842,11.613-36.223-.278-15.5-9.546-24.037-21.515-21.977" fill="#ebebeb"/>
          <path id="패스_43670" data-name="패스 43670" d="M49.774,11.384C46.409,9.4,41.723,9.735,36.58,12.849,27.907,18.1,20.786,29.535,19.192,40.005a27.863,27.863,0,0,0-.33,4.686c.1,5.6,2.1,9.527,5.274,11.4a11.507,11.507,0,0,0,6.877,1.473,18.772,18.772,0,0,0,7.9-2.776c9.854-6.11,17.189-19.309,17.061-30.7-.132-2.737-.44-9.148-6.2-12.7" fill="#064e75"/>
          <path id="패스_43671" data-name="패스 43671" d="M34.163,2.217a8.654,8.654,0,0,0-.854-.433A16.194,16.194,0,0,0,23.1.206a22.972,22.972,0,0,0-10.514,4.88,34.6,34.6,0,0,0-9.059,11.4A32.044,32.044,0,0,0,.01,30.939c.274,9.122,4.782,13.726,8.515,15.982l15.61,9.167c-3.173-1.869-5.173-5.8-5.273-11.4C18.655,33.156,26.587,18.9,36.58,12.85c5.142-3.114,9.828-3.448,13.194-1.466Z" fill="#007fb7"/>
          <path id="패스_43672" data-name="패스 43672" d="M50.4,15.477c-2.946-1.729-7.044-1.435-11.542,1.289-8.749,5.3-15.694,17.779-15.513,27.878.088,4.9,1.835,8.334,4.608,9.973L48.349,66.669l22.483-39.2Z" fill="#ebebeb"/>
          <path id="패스_43673" data-name="패스 43673" d="M72.248,69.669c0,8.313,5.758,11.682,12.861,7.526S97.971,62.93,97.971,54.618s-5.758-11.682-12.862-7.526S72.248,61.356,72.248,69.669" fill="#007fb7"/>
          <path id="패스_43674" data-name="패스 43674" d="M78.635,65.932c0,4.185,2.9,5.881,6.475,3.789a14.545,14.545,0,0,0,6.475-11.366c0-4.185-2.9-5.881-6.475-3.789a14.545,14.545,0,0,0-6.475,11.366" fill="#064e75"/>
          <path id="패스_43675" data-name="패스 43675" d="M94.288,46.229,76.206,35.648c-2.334-1.416-5.584-1.239-9.178.864-7.1,4.156-12.861,14.264-12.861,22.577,0,4.1,1.4,7.006,3.683,8.389l18.082,10.58c-2.278-1.382-3.683-4.282-3.683-8.389,0-8.312,5.758-18.42,12.861-22.577,3.594-2.1,6.844-2.279,9.178-.863" fill="#064e75"/>
          <path id="패스_43676" data-name="패스 43676" d="M44.693,62.1,57.814,96.32a33.709,33.709,0,0,1-2.025-11.453C55.4,63.5,70.1,37.084,88.615,25.874a33.749,33.749,0,0,1,12.309-4.753L65.1,26.507a15.993,15.993,0,0,0-5.826,2.25C50.509,34.063,43.553,46.564,43.735,56.68a15.932,15.932,0,0,0,.958,5.421" fill="#f9f9f9"/>
          <path id="패스_43677" data-name="패스 43677" d="M93.567,105.967c-18.8,11.385-34.361,3.018-34.75-18.689s14.537-48.532,33.34-59.916,34.361-3.018,34.751,18.688S112.37,94.582,93.567,105.967m30.6-58.256c-.358-19.957-14.663-27.65-31.95-17.182S61.2,65.66,61.56,85.617s14.663,27.65,31.95,17.183,31.012-35.132,30.654-55.089" fill="#00698e"/>
          <path id="패스_43678" data-name="패스 43678" d="M93.386,106.4c11.984-7.432,19.778-18.48,24.205-26.439,4.464-8.023,9.752-20.49,9.6-34.32a.5.5,0,0,1-.28.411c.389,21.706-14.538,48.531-33.341,59.916s-34.361,3.018-34.75-18.688,14.537-48.532,33.34-59.917,34.361-3.018,34.751,18.689a.5.5,0,0,0,.28-.411c-.234-4.885-.781-16.324-10.393-22.254-6.457-3.8-15.448-3.163-25.316,2.811-19.173,11.61-34.393,38.964-34,61.1.192,10.743,4.029,18.281,10.119,21.868a18.98,18.98,0,0,0,11.356,2.377,34.237,34.237,0,0,0,14.428-5.14" fill="#76aace"/>
          <path id="패스_43679" data-name="패스 43679" d="M114.57,22.074a16.725,16.725,0,0,0-3.316-1.475l-.125-.041c-.189-.06-.376-.125-.569-.178-3.607-1.09-8.272-1.287-14.929,1.1a43.6,43.6,0,0,0-9.46,5.059A63.874,63.874,0,0,0,75.42,36.077C64.871,47.323,54.464,67.943,54.984,85.6a33.115,33.115,0,0,0,3.049,14.089,17.83,17.83,0,0,0,2.852,4.371,20.75,20.75,0,0,1-2.751-4.412,20.1,20.1,0,0,0,3.879,5.583c-.371-.356-.748-.74-1.128-1.171a16.067,16.067,0,0,0,4.186,3.61l-.308-.211c.2.133.4.272.613.395l2.227,1.312c-6.09-3.587-9.927-11.126-10.119-21.868-.4-22.134,14.823-49.488,34-61.1,9.868-5.975,18.859-6.615,25.316-2.812Z" fill="#007fb7"/>
          <path id="패스_43680" data-name="패스 43680" d="M14.537,44.391l-9.9-5.79a4.222,4.222,0,0,1-2.006-3.207c0-1.123.9-1.507,2.006-.859l9.9,5.79a4.222,4.222,0,0,1,2.006,3.207c0,1.123-.9,1.507-2.006.859" fill="#064e75"/>
          <path id="패스_43681" data-name="패스 43681" d="M49.322,11.111a7.624,7.624,0,0,0-1.36-.631,10.565,10.565,0,0,0-5.326-.391,18.649,18.649,0,0,0-7.041,2.86,18.41,18.41,0,0,0-1.741,1.21c-.6.423-1.15.894-1.7,1.375a35.479,35.479,0,0,0-3.18,3.113,43.092,43.092,0,0,0-5.062,7.137,36.455,36.455,0,0,0-1.8,3.608c-.507,1.177-.965,2.3-1.307,3.365a30.292,30.292,0,0,0-.856,2.927c-.215.881-.348,1.663-.485,2.3-.172,1.288-.27,2.024-.27,2.024s.17-.72.469-1.98a44.927,44.927,0,0,1,1.7-5.059c.387-1.03.891-2.114,1.445-3.243s1.209-2.284,1.89-3.472a42.471,42.471,0,0,1,5.055-6.893,34.682,34.682,0,0,1,3.043-3.077c.532-.476,1.063-.943,1.619-1.35a17.593,17.593,0,0,1,1.68-1.21,19.288,19.288,0,0,1,6.657-3.047,10.881,10.881,0,0,1,5.158,0,9.3,9.3,0,0,1,1.393.486l.478.222-.452-.273" fill="#76aace"/>
        </g>
      </g>
    </g>
    <g id="그룹_16642" data-name="그룹 16642" transform="translate(1729.028 58.598)">
      <g id="그룹_16641" data-name="그룹 16641" clip-path="url(#clip-path-6)">
        <path id="패스_43682" data-name="패스 43682" d="M13.212,14c-.13-.045-.258-.078-.392-.12-.467-.151-.926-.281-1.376-.4s-.853-.193-1.271-.272c-.279-.052-.563-.114-.836-.152-.247-.034-.479-.051-.72-.072-.354-.034-.711-.063-1.05-.07-.175,0-.349,0-.52,0-.389.009-.769.033-1.132.078-.1.012-.209.021-.311.035a8.86,8.86,0,0,0-1.277.3c-.075.024-.145.052-.22.077a7.093,7.093,0,0,0-1.153.515L13.308,7.91c.023-.015.049-.029.075-.044a6.9,6.9,0,0,1,.691-.336c.125-.051.259-.089.386-.135.073-.025.145-.053.221-.077s.124-.048.194-.068a8.464,8.464,0,0,1,.932-.214c.046-.007.1-.01.148-.017.1-.016.209-.022.313-.035.215-.028.424-.061.648-.076.154-.01.325,0,.484,0s.343-.008.52-.005c.113,0,.221-.007.337,0,.229.01.476.049.714.071s.473.039.717.072c.081.012.154.012.232.024.194.03.409.093.606.13.416.077.833.16,1.269.27.107.028.209.039.319.069.345.094.7.213,1.062.327.131.043.256.074.386.12q.858.288,1.751.654c.049.022.1.052.154.073.8.336,1.613.709,2.446,1.14l-10.35,6.016c-.833-.431-1.649-.8-2.447-1.141-.647-.271-1.283-.517-1.9-.727" fill="#edece9"/>
        <path id="패스_43683" data-name="패스 43683" d="M33.278,8.274c-.537-.248-1.071-.485-1.594-.691-.191-.075-.383-.146-.571-.216-.6-.222-1.19-.419-1.768-.586-.1-.029-.2-.066-.3-.093-.345-.1-.67-.15-1.007-.225-.395-.089-.8-.192-1.179-.253A16.069,16.069,0,0,0,25,6.02c-.081,0-.157.005-.238,0a11.671,11.671,0,0,0-1.44.054c-.119.013-.238.024-.354.042a8.834,8.834,0,0,0-1.4.293c-.055.017-.105.039-.16.057a6.867,6.867,0,0,0-1.294.564L30.471,1.018l.073-.044a7.062,7.062,0,0,1,.688-.335c.171-.071.354-.126.531-.186.055-.019.1-.039.159-.057.038-.011.073-.027.111-.039A8.484,8.484,0,0,1,32.97.144c.114-.02.235-.026.349-.041s.235-.029.357-.042.264-.038.4-.046c.331-.022.682-.016,1.033-.007.082,0,.157-.006.238,0,.024,0,.044,0,.067,0a15.483,15.483,0,0,1,1.7.169c.029.006.064.016.093.021.38.061.787.164,1.181.252.305.069.592.111.906.2.032.009.067.022.1.03.1.028.2.064.3.094.575.166,1.164.363,1.765.585.192.07.38.141.572.217.165.065.325.117.493.187.36.149.735.334,1.1.5.244.111.482.211.729.332.769.374,1.547.782,2.342,1.239,1.193.689,2.372,1.447,3.495,2.251L39.846,12.1c-1.126-.8-2.3-1.56-3.494-2.249-.8-.457-1.576-.865-2.343-1.24-.246-.12-.487-.222-.731-.332" fill="#edece9"/>
        <path id="패스_43684" data-name="패스 43684" d="M66.082,26.4c-.018-.053-.032-.109-.049-.162-.1-.312-.218-.629-.346-.947-.023-.061-.049-.123-.075-.184-.134-.324-.279-.649-.439-.977-.023-.046-.049-.094-.072-.14q-.217-.443-.47-.889c-.041-.072-.081-.146-.122-.22q-.292-.507-.618-1.016c-.053-.081-.111-.164-.166-.246-.174-.263-.351-.528-.54-.79-.122-.172-.249-.341-.377-.511-.142-.192-.288-.383-.436-.573-.24-.3-.49-.606-.745-.906-.09-.1-.175-.212-.265-.316-.478-.547-.989-1.085-1.515-1.613-.113-.113-.226-.228-.342-.339q-.579-.564-1.187-1.1c-.058-.054-.117-.109-.177-.162-.465-.407-.947-.8-1.437-1.18-.134-.105-.27-.205-.407-.308-.377-.285-.76-.56-1.149-.829-.151-.1-.3-.206-.45-.307-.519-.344-1.045-.678-1.582-.987-.557-.322-1.106-.61-1.645-.872-.175-.086-.346-.157-.517-.236-.334-.152-.662-.3-.987-.426a19.09,19.09,0,0,0-1.994-.687c-.221-.059-.427-.094-.642-.142-.3-.068-.6-.145-.885-.19a11.336,11.336,0,0,0-1.309-.132c-.061,0-.116,0-.177,0a8.018,8.018,0,0,0-1,.04c-.084.008-.169.017-.25.029a6.294,6.294,0,0,0-.984.207c-.041.012-.075.028-.116.041a4.721,4.721,0,0,0-.908.4L52.048,3.71l.052-.031a5.066,5.066,0,0,1,.491-.238c.116-.049.244-.088.369-.129.037-.013.075-.029.113-.04s.055-.021.084-.03a6.4,6.4,0,0,1,.659-.15c.078-.013.162-.018.241-.028s.165-.02.249-.029S54.5,3.007,54.6,3c.23-.015.471-.01.712-.006.061,0,.116,0,.177,0h.055a10.929,10.929,0,0,1,1.193.12c.02,0,.04.01.061.013.287.046.589.123.888.19.2.046.392.072.6.129.014,0,.029.01.04.013a18.764,18.764,0,0,1,1.994.686c.073.029.137.042.21.071.255.106.519.237.777.356.175.078.343.149.517.235.54.263,1.088.55,1.649.872.534.31,1.062.643,1.582.989.151.1.3.2.447.306.389.267.769.543,1.146.827.139.105.276.2.412.311.488.381.97.772,1.434,1.177.061.055.122.113.183.167.406.358.8.725,1.181,1.1.059.057.122.109.18.167s.108.116.163.174c.528.527,1.036,1.064,1.515,1.611l.041.045c.078.09.148.181.223.272.255.3.508.6.746.9.038.05.081.1.122.148.107.141.206.282.311.423.13.171.258.342.383.515.034.05.075.1.11.151.148.212.287.423.426.635.056.083.114.166.166.248l.035.053c.177.275.345.551.508.827.026.045.049.09.075.135.044.074.084.149.125.223.073.132.151.264.221.4.087.162.165.325.246.488.024.049.05.1.076.146.009.024.023.045.032.067.107.221.206.438.3.657.037.085.069.167.1.252l.079.184c.026.066.055.133.081.2.081.212.157.422.226.63.012.039.023.076.035.114.018.056.032.111.049.166.038.118.076.238.111.354.046.172.084.34.125.508.008.044.023.087.032.131,0,.016.008.033.011.051.058.274.105.544.139.809.006.044.012.089.015.134L66.514,28.387a9.62,9.62,0,0,0-.168-.995c-.009-.042-.02-.084-.029-.126q-.1-.427-.235-.867" fill="#edece9"/>
        <path id="패스_43685" data-name="패스 43685" d="M89.6,60.338l10.353-6.015,0,0c14.539,9.613,7.387,21.286,5.3,23.01-2.606,2.149-14.922,5.085-14.922,5.085Z" fill="#dad4d4"/>
        <path id="패스_43686" data-name="패스 43686" d="M90.606,53.046c-.023-.1-.049-.2-.073-.3-.116-.462-.247-.928-.406-1.4-.014-.044-.032-.086-.049-.129-.172-.5-.369-1.015-.59-1.529a.245.245,0,0,0-.02-.048c-.218-.5-.461-1.01-.723-1.519-.04-.084-.084-.167-.127-.251-.256-.491-.535-.983-.828-1.478-.072-.12-.148-.24-.22-.361q-.361-.589-.758-1.178c-.1-.157-.206-.315-.316-.472-.241-.348-.5-.7-.752-1.042-.151-.206-.3-.412-.456-.617s-.342-.422-.511-.634c-.319-.4-.641-.8-.978-1.19-.145-.17-.3-.335-.449-.505-.627-.707-1.28-1.407-1.966-2.089-.1-.1-.191-.2-.29-.3q-.94-.921-1.941-1.8c-.166-.146-.34-.284-.508-.428q-.771-.661-1.571-1.291c-.235-.183-.473-.363-.708-.543q-.766-.574-1.553-1.118c-.226-.156-.453-.316-.682-.47-.746-.5-1.5-.972-2.27-1.418-.845-.487-1.674-.917-2.493-1.315-.256-.123-.5-.23-.758-.345-.708-.322-1.413-.636-2.1-.887l10.35-6.015c.346.127.694.264,1.048.409s.7.318,1.045.477c.256.115.5.223.761.347.818.4,1.648.826,2.493,1.314.772.445,1.526.923,2.272,1.419.23.152.453.311.68.468.525.364,1.045.735,1.556,1.12.235.178.47.357.7.54q.806.631,1.579,1.3c.168.142.336.28.5.424q1,.879,1.942,1.8c.029.029.061.055.09.083.069.069.127.142.2.211.688.686,1.341,1.385,1.971,2.1.084.1.183.187.267.283.064.073.119.147.18.219.342.4.665.8.987,1.2.13.163.273.324.4.488.035.045.064.09.1.133.162.212.313.424.47.636.192.261.395.522.581.785.055.08.1.16.159.238.111.16.215.321.323.48.133.2.272.4.4.6s.232.381.348.57c.076.123.151.244.224.366.043.077.1.153.139.228.206.354.4.71.592,1.063.032.062.061.123.1.185.044.084.084.169.128.253.1.185.191.371.281.557q.227.473.433.94l.009.021c.005.016.011.03.017.046.119.279.235.558.342.833.09.234.169.465.25.7.015.043.032.087.047.13.008.025.017.049.025.074.1.3.192.6.276.9.041.144.07.285.105.427.026.1.052.2.075.3s.044.175.061.261q.126.593.2,1.167h0a12.119,12.119,0,0,1,.1,1.489,6.853,6.853,0,0,1-1.367,4.376L89.6,60.339a6.823,6.823,0,0,0,1.367-4.376,11.38,11.38,0,0,0-.093-1.489c-.061-.466-.151-.945-.264-1.428" fill="#edece9"/>
        <path id="패스_43687" data-name="패스 43687" d="M17.563,15.865a13.358,13.358,0,0,1-.4-3.094c.021-7.712,8.612-9.026,19.183-2.925,1.19.689,2.369,1.446,3.495,2.248,1.178-3.9,6.682-4.2,13.27-.4,7.033,4.061,12.8,11.334,13.4,16.692a35.342,35.342,0,0,1,5.347,2.547c10.568,6.1,19.125,17.3,19.1,25.028A6.823,6.823,0,0,1,89.6,60.338c4.493,5.169,8.13,7.754,7.363,15.307a9.279,9.279,0,0,1-5.843,6.678c-3.352.932-8.156-.746-13.34-3.74a46.5,46.5,0,0,1-8.554-6.419c-4.977-.129-11.186-2.078-17.9-5.953A73.286,73.286,0,0,1,30.967,48.536c-2.92.48-6.641-.216-11.863-3.827C9.053,37.76-.021,27.391,0,19.68c.02-7.326,7.741-8.9,17.563-3.815" fill="#fbf8f3"/>
        <path id="패스_43688" data-name="패스 43688" d="M16.644,118.613c-.1-.035-.195-.059-.293-.091-.351-.112-.694-.209-1.031-.3s-.638-.145-.949-.2c-.209-.039-.424-.086-.627-.113-.183-.026-.36-.038-.537-.056-.267-.024-.534-.046-.786-.052-.134,0-.261,0-.389,0-.293.007-.575.025-.848.058-.075.01-.157.016-.232.028a6.318,6.318,0,0,0-.955.223c-.055.018-.11.039-.165.058a5.115,5.115,0,0,0-.863.385l7.745-4.5.058-.034a4.445,4.445,0,0,1,.519-.251c.09-.039.192-.068.287-.1.056-.018.108-.039.163-.058s.1-.036.148-.05a6.58,6.58,0,0,1,.7-.16c.035-.006.075-.007.11-.013.076-.012.157-.016.235-.026.16-.02.316-.045.485-.057.116-.007.241,0,.36,0s.258-.006.389,0c.087,0,.165-.006.252,0,.171.007.357.037.534.054s.354.029.54.054c.058.009.113.009.171.017.148.022.308.07.456.1.311.058.624.121.946.2.082.022.157.029.241.051.259.071.528.16.8.247.1.03.192.055.288.088.43.145.865.306,1.312.491.037.016.075.037.116.054.595.25,1.2.531,1.828.853l-7.746,4.5c-.622-.323-1.231-.6-1.829-.854-.485-.2-.961-.387-1.425-.544" fill="#edece9"/>
        <path id="패스_43689" data-name="패스 43689" d="M31.659,114.329c-.4-.184-.8-.361-1.194-.517l-.427-.161c-.45-.167-.893-.315-1.323-.438-.076-.022-.151-.051-.226-.07-.259-.071-.5-.113-.755-.168-.293-.067-.595-.144-.88-.189a11.389,11.389,0,0,0-1.392-.142c-.062,0-.117,0-.177,0a8.932,8.932,0,0,0-1.074.042c-.09.009-.18.019-.267.031a6.658,6.658,0,0,0-1.045.219c-.041.013-.079.029-.119.042a5.108,5.108,0,0,0-.969.424l7.746-4.5a.606.606,0,0,1,.055-.032,5.093,5.093,0,0,1,.514-.251c.127-.054.264-.1.4-.139a1.159,1.159,0,0,1,.119-.043c.025-.008.052-.02.08-.029a6.581,6.581,0,0,1,.7-.161c.083-.014.177-.019.264-.03s.174-.022.264-.031.2-.027.3-.035c.25-.016.51-.011.774-.005.061,0,.116,0,.177,0,.018,0,.035,0,.052,0a11.658,11.658,0,0,1,1.269.128c.023,0,.047.011.069.014.285.046.587.124.886.189.226.051.441.083.676.145.023.008.049.016.076.023.072.021.15.048.226.07.429.125.871.272,1.322.438.141.053.283.106.425.163.125.048.244.087.369.139.27.112.551.25.827.376.183.084.36.16.546.25.574.281,1.159.585,1.75.928.9.516,1.777,1.082,2.618,1.683l-7.747,4.5c-.842-.6-1.724-1.168-2.614-1.683-.6-.342-1.179-.647-1.754-.927-.186-.09-.363-.166-.545-.25" fill="#edece9"/>
        <path id="패스_43690" data-name="패스 43690" d="M56.2,127.891c-.012-.041-.023-.08-.035-.12-.075-.234-.162-.471-.258-.709-.018-.046-.038-.091-.055-.138-.1-.242-.209-.486-.331-.731-.015-.035-.035-.071-.052-.106-.111-.221-.227-.441-.351-.663-.033-.055-.061-.11-.094-.165q-.218-.38-.461-.761c-.041-.061-.084-.122-.125-.184q-.195-.3-.4-.591c-.093-.128-.189-.256-.285-.383s-.212-.286-.325-.428c-.177-.227-.365-.453-.557-.678-.067-.078-.131-.158-.2-.237-.36-.409-.741-.811-1.135-1.206-.084-.085-.169-.171-.256-.255-.287-.28-.583-.556-.888-.825-.043-.038-.087-.081-.133-.12-.349-.3-.709-.6-1.074-.882-.1-.079-.2-.154-.305-.231q-.423-.319-.859-.62c-.113-.077-.224-.155-.337-.23-.389-.257-.781-.508-1.184-.739s-.828-.456-1.231-.653c-.131-.064-.258-.116-.389-.176-.247-.114-.493-.222-.737-.319a14.17,14.17,0,0,0-1.492-.514c-.165-.045-.319-.07-.479-.106-.223-.051-.45-.109-.665-.142a8.145,8.145,0,0,0-.978-.1c-.046,0-.087,0-.13,0a6.3,6.3,0,0,0-.752.031c-.064.006-.128.013-.189.021a4.668,4.668,0,0,0-.734.156c-.032.009-.058.02-.087.03a3.648,3.648,0,0,0-.682.3l7.747-4.5c.011-.007.026-.015.037-.023a3.81,3.81,0,0,1,.369-.179c.087-.036.183-.065.276-.1l.084-.031c.02-.006.041-.016.064-.022a5.018,5.018,0,0,1,.493-.113c.058-.01.119-.012.18-.02s.122-.016.186-.022.142-.02.22-.026c.169-.01.352-.006.532,0,.043,0,.087,0,.133,0,.012,0,.026,0,.041,0a8.787,8.787,0,0,1,.891.09l.046.011c.215.033.441.091.665.142.151.033.293.053.447.1a.233.233,0,0,1,.032.01,13.719,13.719,0,0,1,1.492.513c.052.021.1.031.154.054.191.079.388.176.583.266.131.058.255.112.386.176.406.195.816.41,1.234.651.4.232.795.482,1.184.74.113.076.223.153.334.23q.435.3.859.618c.1.078.206.153.307.233.366.285.726.578,1.074.881.047.041.09.085.137.125.3.269.6.541.882.821.044.043.093.082.137.125s.078.087.121.13c.4.394.776.8,1.133,1.207a.239.239,0,0,1,.031.033c.059.067.111.135.169.2.189.225.377.45.557.677.029.038.061.074.09.112.081.1.154.21.235.316.1.128.192.255.285.385.026.037.055.075.084.113.11.158.212.316.316.474.041.063.087.125.125.187l.026.038c.134.206.258.414.38.62.021.033.038.067.056.1l.1.167c.053.1.111.2.163.294.067.122.125.244.186.366.017.036.037.072.055.108l.026.051c.078.164.154.328.226.492.026.063.05.125.076.188.02.046.038.092.058.139s.04.1.061.148c.061.158.116.316.168.473.009.028.017.057.026.084s.026.083.038.125c.029.089.058.177.081.264.035.128.064.254.093.38.009.032.018.066.026.1a.189.189,0,0,0,.009.038c.043.205.078.406.1.605,0,.034.008.067.014.1l-7.747,4.5a6.831,6.831,0,0,0-.125-.746c-.005-.031-.017-.062-.023-.094-.049-.214-.107-.43-.177-.649" fill="#edece9"/>
        <path id="패스_43691" data-name="패스 43691" d="M73.8,153.287l7.747-4.5,0,0c10.882,7.191,5.526,15.926,3.962,17.216-1.948,1.608-11.163,3.806-11.163,3.806L73.8,153.287h0Z" fill="#dad4d4"/>
        <path id="패스_43692" data-name="패스 43692" d="M74.555,147.83c-.017-.074-.038-.149-.055-.225-.087-.345-.186-.694-.305-1.048-.012-.032-.023-.065-.035-.1-.13-.377-.276-.759-.441-1.144a.142.142,0,0,1-.014-.036c-.163-.376-.349-.755-.543-1.136-.032-.063-.061-.125-.1-.187-.191-.368-.4-.738-.618-1.106-.052-.09-.111-.182-.166-.272-.18-.293-.368-.588-.565-.881-.079-.117-.157-.235-.239-.354-.18-.259-.371-.519-.563-.779-.113-.154-.223-.308-.339-.462s-.256-.316-.383-.474c-.238-.3-.479-.6-.732-.89-.11-.126-.223-.251-.337-.377q-.7-.795-1.468-1.565c-.076-.074-.145-.149-.221-.223q-.7-.688-1.451-1.347c-.122-.109-.253-.213-.377-.321-.387-.329-.778-.651-1.179-.965-.174-.137-.351-.273-.531-.406q-.57-.432-1.161-.837c-.169-.118-.337-.237-.508-.352-.557-.37-1.123-.728-1.7-1.061-.63-.365-1.251-.686-1.863-.984-.192-.092-.381-.172-.569-.258-.532-.241-1.057-.476-1.568-.663l7.747-4.5c.259.1.517.2.781.306s.522.238.784.357c.191.087.377.167.569.26.612.3,1.233.618,1.866.982.575.334,1.141.692,1.7,1.063.174.113.34.232.511.35.392.271.781.551,1.161.839.177.133.354.267.528.4.4.315.8.638,1.181.969.125.108.253.209.375.318q.753.658,1.454,1.348c.02.022.047.041.067.063.052.051.1.106.148.158q.771.768,1.474,1.567c.064.073.137.141.2.212.046.055.087.111.133.164.256.3.5.6.74.9.1.122.2.243.3.366.026.033.049.067.076.1.119.158.232.316.348.475.145.2.3.392.435.588.041.059.079.118.119.178.085.119.163.239.241.36.1.149.206.3.3.45s.174.284.262.426c.058.092.113.182.168.273.032.057.069.113.1.17q.231.4.444.795c.024.047.047.093.07.14.032.064.064.126.1.188.07.14.145.279.212.417.113.236.22.47.322.7a.04.04,0,0,1,.006.016c.005.011.008.023.014.034.09.208.177.417.256.623.066.176.127.348.185.521.012.032.027.065.038.1s.012.038.017.056c.076.226.146.451.207.674.031.108.052.214.078.32.02.075.041.149.055.223s.035.131.049.2c.064.295.114.586.148.872v0a8.547,8.547,0,0,1,.073,1.114,5.121,5.121,0,0,1-1.025,3.274l-7.747,4.5a5.1,5.1,0,0,0,1.025-3.274,9.062,9.062,0,0,0-.07-1.113c-.046-.35-.113-.707-.2-1.07" fill="#edece9"/>
        <path id="패스_43693" data-name="패스 43693" d="M19.9,120.01a9.983,9.983,0,0,1-.293-2.316c.014-5.77,6.443-6.754,14.353-2.188.891.515,1.773,1.083,2.615,1.683.882-2.917,5-3.147,9.93-.3,5.262,3.037,9.575,8.481,10.026,12.492a26.149,26.149,0,0,1,4,1.9c7.909,4.566,14.312,12.946,14.294,18.727a5.109,5.109,0,0,1-1.024,3.274c3.363,3.87,6.084,5.8,5.511,11.454a6.951,6.951,0,0,1-4.371,5c-2.511.7-6.1-.559-9.982-2.8a34.811,34.811,0,0,1-6.4-4.8c-3.724-.1-8.368-1.556-13.389-4.455a54.856,54.856,0,0,1-15.236-13.224c-2.186.358-4.969-.163-8.876-2.865-7.52-5.2-14.309-12.957-14.3-18.726.017-5.484,5.794-6.659,13.14-2.856" fill="#fbf8f3"/>
      </g>
    </g>
    <g id="그룹_16686" data-name="그룹 16686">
      <path id="패스_43728" data-name="패스 43728" d="M275.964,57.064a7.876,7.876,0,0,0-1.6-.482l-.442-.086a10.183,10.183,0,0,0-5.885,1.078l-3.22-1.86-.058-.009c-4.714-3.331-15.485-6.6-27.278,19.22-2.158,1.395-3.866,2.661-6.185,4.384a23.435,23.435,0,0,0-4.175,3.962l-.158.214c-.33.422-.659.846-.946,1.291-1.765,2.726-2.7,5.834-1.436,9.058a5.754,5.754,0,0,0,3.241,3.107l7.3,4.279s50.009-27.841,50.034-28.264l.062-10.618s-9.153-5.231-9.253-5.274" transform="translate(186.904 58.598)" fill="#edeef3"/>
      <path id="패스_43729" data-name="패스 43729" d="M232.758,98.5a6.2,6.2,0,0,0,5.026,3.594,7.826,7.826,0,0,0,4.788-1.154q4.32-2.454,8.64-4.915,10.6-6.028,21.2-12.06,4.515-2.571,9.031-5.137c3.866-2.2,6.976-5.286,6.808-10.109-.1-2.872-1.339-5.783-4.109-6.989-2.888-1.257-6.04-.6-8.695.914,0,0-13.976-17.677-29.789,16.946l.094-.054c-.058.035-.094.054-.094.054-2.156,1.392-3.865,2.66-6.183,4.383a22.04,22.04,0,0,0-5.279,5.469c-1.765,2.724-2.7,5.834-1.437,9.058" transform="translate(186.904 58.598)" fill="#feffff"/>
      <path id="패스_43732" data-name="패스 43732" d="M273.215,1.987a4.507,4.507,0,0,0-.911-.269l-.253-.048a5.793,5.793,0,0,0-3.358.658l-1.824-1.053a7.417,7.417,0,0,0-1.2-.692L265.65.57h-.013a6.07,6.07,0,0,0-3.114-.542l-.14.021c-3.023.36-6.925,3.141-11.013,12.233-1.223.8-2.191,1.527-3.506,2.515a13.344,13.344,0,0,0-2.363,2.269l-.089.122c-.186.241-.372.484-.535.738a5.535,5.535,0,0,0-.787,5.161,3.279,3.279,0,0,0,1.855,1.758l4.168,2.411S278.486,11.243,278.5,11V4.958s-5.228-2.947-5.284-2.971" transform="translate(186.904 58.598)" fill="#edeef3"/>
      <path id="패스_43733" data-name="패스 43733" d="M248.76,25.717a3.53,3.53,0,0,0,2.872,2.029,4.453,4.453,0,0,0,2.722-.673q2.452-1.41,4.9-2.826,6.012-3.466,12.027-6.934,2.562-1.479,5.123-2.954c2.193-1.266,3.953-3.032,3.842-5.777a4.3,4.3,0,0,0-2.362-3.964,5.514,5.514,0,0,0-4.946.549s-8.014-10.015-16.9,9.744l.054-.031-.054.031c-1.222.8-2.191,1.527-3.505,2.515a12.567,12.567,0,0,0-2.986,3.13,5.529,5.529,0,0,0-.788,5.161" transform="translate(186.904 58.598)" fill="#feffff"/>
    </g>
  </g>
</svg>
