<svg xmlns="http://www.w3.org/2000/svg" width="205" height="54.871" viewBox="0 0 205 54.871">
  <g id="그룹_29856" data-name="그룹 29856" transform="translate(-91.917 -217.324)">
    <g id="그룹_29854" data-name="그룹 29854" transform="translate(205.776 217.324)">
      <rect id="사각형_44215" data-name="사각형 44215" width="4.05" height="6.645" rx="0.556" transform="translate(11.67 5.482)" fill="#f99900"/>
      <path id="패스_47777" data-name="패스 47777" d="M211.943,237.14v-2.07a4.928,4.928,0,0,0-4.928-4.928H194.462a.787.787,0,0,0-.788.788v6.21a.788.788,0,0,0,.788.789h16.692A.789.789,0,0,0,211.943,237.14Z" transform="translate(-193.674 -215.799)" fill="#679ad2"/>
      <path id="패스_47778" data-name="패스 47778" d="M212.367,239.453h2.559a4.506,4.506,0,0,0,4.506-4.507v-16.9a.721.721,0,0,0-.721-.722h-6.344a.721.721,0,0,0-.721.722v20.686A.721.721,0,0,0,212.367,239.453Z" transform="translate(-191.537 -217.324)" fill="#679ad2"/>
      <path id="패스_47779" data-name="패스 47779" d="M209.948,238.848l-.488.293a13.2,13.2,0,0,0-6.4,11.318v4.9a.789.789,0,0,0,.789.789h6.21a.788.788,0,0,0,.788-.789v-16A.591.591,0,0,0,209.948,238.848Z" transform="translate(-192.558 -214.774)" fill="#bc430a"/>
      <path id="패스_47780" data-name="패스 47780" d="M227.111,244.377l-3.459-3.46a9.341,9.341,0,0,0-8.795-2.478l-2.758.664a.591.591,0,0,0-.28.992l9.786,9.788a.788.788,0,0,0,1.114,0l4.391-4.392A.788.788,0,0,0,227.111,244.377Z" transform="translate(-191.537 -214.844)" fill="#f99900"/>
    </g>
    <path id="패스_47781" data-name="패스 47781" d="M96.168,230.145v.014h.014Z" transform="translate(0.506 1.525)" fill="#2a2b2b"/>
    <path id="패스_47782" data-name="패스 47782" d="M100.827,234.818h9.73l4.661-4.661H96.18l4.647,4.647Z" transform="translate(0.507 1.526)" fill="#f99900" opacity="0.6"/>
    <path id="패스_47783" data-name="패스 47783" d="M109.029,244.534l4.661,4.661V230.157l-4.661,4.661Z" transform="translate(2.035 1.526)" fill="#f99900"/>
    <path id="패스_47784" data-name="패스 47784" d="M113.2,247.185v-.014h-.014Z" transform="translate(2.529 3.55)" fill="#f99900"/>
    <path id="패스_47785" data-name="패스 47785" d="M109.029,243.02l4.647,4.647h.014l-4.661-4.661Z" transform="translate(2.035 3.054)" fill="#f99900"/>
    <path id="패스_47786" data-name="패스 47786" d="M100.829,234.8l-4.647-4.647h-.014l4.661,4.661Z" transform="translate(0.506 1.526)" fill="#f99900"/>
    <path id="패스_47787" data-name="패스 47787" d="M125.831,234.818a5.176,5.176,0,0,1,3.644,1.5c.01.009.017.021.026.03l3.333-3.258c-.012-.012-.028-.021-.041-.034a9.736,9.736,0,0,0-13.893.03l3.291,3.291A5.115,5.115,0,0,1,125.831,234.818Z" transform="translate(3.209 1.526)" fill="#f99900" opacity="0.6"/>
    <path id="패스_47788" data-name="패스 47788" d="M129.906,239.705a5.165,5.165,0,0,1-1.383,3.5c-.05.055-.113.1-.166.148l3.285,3.285c.119-.12.243-.233.356-.358a9.767,9.767,0,0,0-.289-13.506l-3.333,3.258A5.177,5.177,0,0,1,129.906,239.705Z" transform="translate(4.334 1.838)" fill="#f99900"/>
    <path id="패스_47789" data-name="패스 47789" d="M141.146,234.772h4.3v-4.614h-9v27.049h4.7Z" transform="translate(5.297 1.526)" fill="#0b0a0a"/>
    <path id="패스_47790" data-name="패스 47790" d="M176.318,230.157l-10.655,21.78h5.418l5.187-11.042,5.24,11.042h5.465Z" transform="translate(8.771 1.526)" fill="#0b0a0a"/>
    <rect id="사각형_44216" data-name="사각형 44216" width="4.742" height="27.049" transform="translate(197.422 231.684)" fill="#0b0a0a"/>
    <path id="패스_47791" data-name="패스 47791" d="M135.995,230.16V225.6h-7.03V222h-4.691v3.6h-7.241v4.565h18.963Z" transform="translate(2.987 0.556)" fill="#0b0a0a"/>
    <path id="패스_47792" data-name="패스 47792" d="M91.917,250.329v4.466h12.5v4.063h4.646v-4.063h6.713l-.1-4.466Z" transform="translate(0 3.925)" fill="#0b0a0a"/>
    <path id="패스_47793" data-name="패스 47793" d="M251.058,255.374h11v4.267h4.879v-4.267h11.047v-4.691h-26.93Z" transform="translate(18.927 3.968)" fill="#0b0a0a"/>
    <path id="패스_47794" data-name="패스 47794" d="M96.864,262.735V258.18l-4.695.046v9.024h19.747l-.047-4.515Z" transform="translate(0.03 4.859)" fill="#0b0a0a"/>
    <path id="패스_47795" data-name="패스 47795" d="M110.558,244.548v-.014h-9.73v-9.716l-4.661-4.661V249.2h19.038Z" transform="translate(0.506 1.526)" fill="#0b0a0a"/>
    <path id="패스_47796" data-name="패스 47796" d="M154.383,252.74H142.714l.1,4.466h23.965V252.74h-7.748v-3.531h7.748v-4.661H152.385v-9.73h14.391v-4.661H147.724v19.052h6.658Z" transform="translate(6.042 1.526)" fill="#0b0a0a"/>
    <path id="패스_47797" data-name="패스 47797" d="M117.168,252.283v4.612h19.081l-.094-4.612h-7.148v-3.154a9.97,9.97,0,0,0,4.071-2.486l-3.285-3.285a5.074,5.074,0,0,1-7.3,0c-.057-.058-.126-.1-.181-.164a5.109,5.109,0,0,1-.106-6.842c.09-.1.2-.186.3-.283l-3.291-3.291c-.163.163-.329.324-.48.5a9.708,9.708,0,0,0,.227,13.14c.076.083.173.143.253.224a9.892,9.892,0,0,0,5.15,2.759v2.886Z" transform="translate(2.898 1.838)" fill="#0b0a0a"/>
    <path id="패스_47798" data-name="패스 47798" d="M243.928,241.182h4.83v-14H228.465v4.792h15.463Z" transform="translate(16.24 1.172)" fill="#0b0a0a"/>
    <path id="패스_47799" data-name="패스 47799" d="M239.864,236.62h-4.882v5.786h-6.517v4.69h24.6v-4.69h-13.2Z" transform="translate(16.24 2.295)" fill="#0b0a0a"/>
    <path id="패스_47800" data-name="패스 47800" d="M238.822,263.342a5.4,5.4,0,0,1-3.833-1.628c-.06-.062-.133-.11-.191-.172a5.366,5.366,0,0,1-.11-7.187c.093-.11.209-.195.311-.3l-3.458-3.457c-.171.172-.345.341-.5.525a10.2,10.2,0,0,0,.238,13.8c.081.086.182.15.266.234a10.159,10.159,0,0,0,14.563,0l-3.45-3.45A5.4,5.4,0,0,1,238.822,263.342Z" transform="translate(16.24 3.958)" fill="#0b0a0a"/>
    <path id="패스_47801" data-name="패스 47801" d="M241.167,254.027a5.407,5.407,0,0,1,.154,7.534c-.054.057-.119.1-.175.154l3.45,3.45c.125-.125.256-.244.374-.375a10.258,10.258,0,0,0-.3-14.185Z" transform="translate(17.749 3.958)" fill="#679ad2"/>
    <path id="패스_47802" data-name="패스 47802" d="M238.495,252.747a5.441,5.441,0,0,1,3.827,1.575c.01.01.017.022.027.031l3.5-3.422c-.013-.013-.03-.022-.044-.036a10.227,10.227,0,0,0-14.592.031l3.458,3.458A5.371,5.371,0,0,1,238.495,252.747Z" transform="translate(16.567 3.631)" fill="#679ad2" opacity="0.6"/>
    <g id="그룹_29855" data-name="그룹 29855" transform="translate(269.986 237.462)">
      <path id="패스_47803" data-name="패스 47803" d="M264.165,235.321H254.12l-.049,4.792h5.534l4.5-4.733Z" transform="translate(-250.7 -235.321)" fill="#0b0a0a"/>
      <path id="패스_47804" data-name="패스 47804" d="M267.653,240.113h5.534l-.049-4.792H263.092l.056.059Z" transform="translate(-249.627 -235.321)" fill="#0b0a0a"/>
      <path id="패스_47805" data-name="패스 47805" d="M264.468,235.38l-4.5,4.733-.056.059-8.849,9.3h6.809l6.651-7.221,0,0v-6.923Z" transform="translate(-251.058 -235.321)" fill="#679ad2" opacity="0.6"/>
      <path id="패스_47806" data-name="패스 47806" d="M267.708,240.172l-.056-.059-4.5-4.733-.056-.059v6.923l6.656,7.226h6.809Z" transform="translate(-249.627 -235.321)" fill="#679ad2"/>
    </g>
  </g>
</svg>
