<svg xmlns="http://www.w3.org/2000/svg" xmlns:xlink="http://www.w3.org/1999/xlink" width="1920" height="940" viewBox="0 0 1920 940">
  <defs>
    <clipPath id="clip-path">
      <rect id="사각형_5923" data-name="사각형 5923" width="1920" height="940" fill="#fff" stroke="#707070" stroke-width="1"/>
    </clipPath>
    <clipPath id="clip-path-2">
      <rect id="사각형_5590" data-name="사각형 5590" width="27.605" height="15.985" transform="translate(55.973 245.384)" fill="none"/>
    </clipPath>
    <clipPath id="clip-path-3">
      <rect id="사각형_5591" data-name="사각형 5591" width="27.605" height="15.985" transform="translate(55.973 241.04)" fill="none"/>
    </clipPath>
    <clipPath id="clip-path-4">
      <rect id="사각형_5592" data-name="사각형 5592" width="27.596" height="15.988" transform="translate(53.357 233.142)" fill="none"/>
    </clipPath>
    <clipPath id="clip-path-5">
      <rect id="사각형_5593" data-name="사각형 5593" width="27.539" height="6.372" transform="translate(53.358 238.67)" fill="none"/>
    </clipPath>
    <clipPath id="clip-path-6">
      <rect id="사각형_5594" data-name="사각형 5594" width="24.131" height="6.123" transform="translate(56.451 233.142)" fill="none"/>
    </clipPath>
    <clipPath id="clip-path-7">
      <rect id="사각형_5595" data-name="사각형 5595" width="19.583" height="25.182" transform="translate(40.932 244.541)" fill="none"/>
    </clipPath>
    <clipPath id="clip-path-8">
      <rect id="사각형_5596" data-name="사각형 5596" width="19.583" height="25.182" transform="translate(36.271 246.946)" fill="none"/>
    </clipPath>
    <clipPath id="clip-path-9">
      <rect id="사각형_5898" data-name="사각형 5898" width="9.957" height="12.561" transform="translate(375.367 15.669)" fill="none"/>
    </clipPath>
    <clipPath id="clip-path-10">
      <rect id="사각형_5600" data-name="사각형 5600" width="58.509" height="116.609" transform="translate(0 0)" fill="none"/>
    </clipPath>
    <clipPath id="clip-path-11">
      <rect id="사각형_5904" data-name="사각형 5904" width="30.228" height="8.234" transform="translate(130.812 112.333)" fill="none"/>
    </clipPath>
    <clipPath id="clip-path-12">
      <rect id="사각형_5905" data-name="사각형 5905" width="74.944" height="74.363" transform="translate(106.151 41.587)" fill="none"/>
    </clipPath>
    <clipPath id="clip-path-13">
      <rect id="사각형_5906" data-name="사각형 5906" width="23.326" height="22.294" transform="translate(150.391 41.828)" fill="none"/>
    </clipPath>
  </defs>
  <g id="마스크_그룹_4" data-name="마스크 그룹 4" clip-path="url(#clip-path)">
    <g id="그룹_16682" data-name="그룹 16682">
      <g id="그룹_15971" data-name="그룹 15971" transform="translate(924.244 252.491)" opacity="0.9">
        <g id="그룹_15970" data-name="그룹 15970">
          <g id="그룹_15969" data-name="그룹 15969" clip-path="url(#clip-path-2)">
            <path id="패스_39415" data-name="패스 39415" d="M79.911,255.465a4.873,4.873,0,0,1-4.424,0A1.353,1.353,0,0,1,75.5,252.9a4.87,4.87,0,0,1,4.427,0c1.218.707,1.213,1.853-.016,2.562m-6.733,3.886a4.881,4.881,0,0,1-4.428,0c-1.219-.709-1.211-1.857.017-2.565a4.879,4.879,0,0,1,4.427,0c1.218.707,1.209,1.855-.016,2.562m2.781-8.677a4.885,4.885,0,0,1-4.427,0,1.355,1.355,0,0,1,.014-2.564,4.885,4.885,0,0,1,4.427,0,1.355,1.355,0,0,1-.014,2.564m-10.87,6.274a4.885,4.885,0,0,1-4.427,0,1.355,1.355,0,0,1,.014-2.564,4.885,4.885,0,0,1,4.427,0,1.355,1.355,0,0,1-.014,2.564m1.277-5.552a4.886,4.886,0,0,1-4.429,0,1.355,1.355,0,0,1,.015-2.564,4.885,4.885,0,0,1,4.427,0,1.355,1.355,0,0,1-.013,2.565m-6.318-3.671c-5.408,3.121-5.436,8.182-.064,11.3s14.112,3.122,19.52,0,5.436-8.181.064-11.3-14.112-3.121-19.52,0" fill="#939598"/>
          </g>
        </g>
      </g>
      <path id="패스_39416" data-name="패스 39416" d="M59.984,259.68c5.372,3.12,14.112,3.12,19.519,0,2.858-1.65,4.216-3.841,4.063-6-.136,1.942-1.494,3.868-4.063,5.351-5.407,3.121-14.147,3.121-19.519,0-2.53-1.474-3.865-3.373-4-5.3-.153,2.146,1.182,4.315,4,5.952m.692-5.3c-.757.438-1.049,1.042-.874,1.611a1.787,1.787,0,0,1,.874-.962,4.879,4.879,0,0,1,4.43,0,1.757,1.757,0,0,1,.854.945c.175-.562-.11-1.163-.857-1.6a4.879,4.879,0,0,0-4.427,0m6.56-3.955c.176-.561-.11-1.162-.857-1.6a4.879,4.879,0,0,0-4.427,0c-.766.442-1.055,1.055-.873,1.623a1.776,1.776,0,0,1,.873-.974,4.879,4.879,0,0,1,4.427,0,1.785,1.785,0,0,1,.857.948m1.53,6.361c-.763.438-1.052,1.049-.874,1.617a1.792,1.792,0,0,1,.874-.968,4.885,4.885,0,0,1,4.427,0,1.761,1.761,0,0,1,.857.948c.176-.561-.11-1.162-.857-1.6a4.879,4.879,0,0,0-4.427,0m8.064-7.081c.176-.562-.11-1.163-.857-1.6a4.879,4.879,0,0,0-4.427,0c-.757.438-1.049,1.046-.873,1.611a1.781,1.781,0,0,1,.873-.962,4.885,4.885,0,0,1,4.427,0,1.784,1.784,0,0,1,.857.949m3.953,4.792c.179-.562-.11-1.162-.857-1.6a4.873,4.873,0,0,0-4.427,0c-.76.439-1.049,1.049-.871,1.614a1.781,1.781,0,0,1,.871-.964,4.87,4.87,0,0,1,4.427,0,1.782,1.782,0,0,1,.857.948" transform="translate(924.244 252.491)" fill="#808285"/>
      <path id="패스_39417" data-name="패스 39417" d="M59.208,249.611c0,.038.008.075.013.113s.011.091.019.136.015.076.023.114.021.09.033.134.022.076.034.114.028.089.045.134.028.075.044.113.037.088.058.132.035.075.054.113.047.087.071.131.043.074.065.111.055.087.084.13.049.073.075.11.064.086.1.129.055.071.084.107.054.061.081.092c.061.07.125.14.192.208l.085.086c.086.085.177.168.273.251l.028.025c.106.09.22.179.338.267l.1.075c.09.064.183.128.279.19l.126.082c.085.053.174.105.263.157.042.025.082.05.125.074.134.075.272.149.417.221.233.116.477.224.726.328.074.031.149.059.224.089.169.067.343.129.518.19.125.043.251.086.379.126.16.051.323.1.488.144.131.037.26.073.392.106.169.043.341.081.513.119.134.03.266.059.4.086.178.034.359.064.54.094.133.022.266.046.4.065.283.04.567.076.854.1l.146.012c.253.024.508.042.764.056l.243.012c.3.013.6.021.9.021a17.122,17.122,0,0,0,7.469-1.552c2.051-1.032,3.075-2.383,3.075-3.735v4.447c0,1.353-1.024,2.7-3.075,3.736a17.122,17.122,0,0,1-7.469,1.552c-.3,0-.6-.009-.9-.021l-.243-.013c-.256-.013-.511-.032-.764-.055l-.146-.012c-.249-.025-.5-.053-.743-.087l-.111-.017c-.134-.02-.266-.043-.4-.065-.181-.03-.362-.06-.54-.1-.135-.026-.267-.056-.4-.085-.172-.038-.343-.076-.512-.119-.133-.033-.262-.07-.394-.106-.164-.046-.327-.093-.487-.144-.128-.04-.254-.083-.379-.126-.079-.027-.161-.051-.238-.08-.1-.034-.186-.074-.279-.11-.076-.03-.151-.059-.225-.09-.249-.1-.493-.211-.726-.327-.145-.073-.283-.147-.417-.222l-.124-.072c-.09-.052-.179-.1-.264-.158l-.058-.035-.068-.047c-.1-.063-.189-.126-.28-.191l-.1-.074c-.118-.088-.232-.177-.338-.267l-.029-.026c-.1-.082-.186-.166-.272-.25l-.085-.086c-.067-.069-.131-.138-.193-.208-.015-.018-.034-.035-.049-.054s-.02-.025-.03-.038c-.03-.036-.058-.072-.085-.108s-.067-.085-.1-.129-.05-.072-.075-.109-.057-.086-.084-.13-.044-.074-.065-.111-.048-.088-.07-.131-.038-.075-.055-.113-.04-.088-.058-.132-.031-.076-.044-.114-.031-.088-.045-.133-.024-.076-.034-.114-.023-.09-.033-.135-.016-.075-.023-.113-.014-.091-.019-.136-.01-.076-.013-.113c0-.013,0-.026,0-.039,0-.06-.006-.121-.006-.181v-4.448c0,.073,0,.147.01.22" transform="translate(924.244 252.491)" fill="#222122"/>
      <path id="패스_39418" data-name="패스 39418" d="M69.81,254.712a17.122,17.122,0,0,0,7.469-1.553c4.119-2.072,4.1-5.43-.047-7.5a18.768,18.768,0,0,0-14.96,0c-4.115,2.07-4.1,5.431.047,7.5a17.262,17.262,0,0,0,7.491,1.553" transform="translate(924.244 252.491)" fill="#3c3b3d"/>
      <g id="그룹_15974" data-name="그룹 15974" transform="translate(924.244 252.491)" opacity="0.9">
        <g id="그룹_15973" data-name="그룹 15973">
          <g id="그룹_15972" data-name="그룹 15972" clip-path="url(#clip-path-3)">
            <path id="패스_39419" data-name="패스 39419" d="M79.911,251.121a4.873,4.873,0,0,1-4.424,0,1.353,1.353,0,0,1,.013-2.562,4.87,4.87,0,0,1,4.427,0c1.218.707,1.213,1.853-.016,2.562m-6.733,3.886a4.881,4.881,0,0,1-4.428,0c-1.219-.709-1.211-1.857.017-2.565a4.879,4.879,0,0,1,4.427,0c1.218.707,1.209,1.855-.016,2.562m2.781-8.677a4.885,4.885,0,0,1-4.427,0,1.355,1.355,0,0,1,.014-2.564,4.885,4.885,0,0,1,4.427,0,1.355,1.355,0,0,1-.014,2.564M65.089,252.6a4.885,4.885,0,0,1-4.427,0,1.355,1.355,0,0,1,.014-2.564,4.885,4.885,0,0,1,4.427,0,1.355,1.355,0,0,1-.014,2.564m1.277-5.552a4.886,4.886,0,0,1-4.429,0,1.355,1.355,0,0,1,.015-2.564,4.885,4.885,0,0,1,4.427,0,1.355,1.355,0,0,1-.013,2.565m-6.318-3.671c-5.408,3.121-5.436,8.182-.064,11.3s14.112,3.122,19.52,0,5.436-8.181.064-11.3-14.112-3.121-19.52,0" fill="#a7a9ac"/>
          </g>
        </g>
      </g>
      <path id="패스_39420" data-name="패스 39420" d="M67.89,247.938a4.167,4.167,0,0,1,3.782,0,1.157,1.157,0,0,1-.01,2.191,4.168,4.168,0,0,1-3.784,0,1.157,1.157,0,0,1,.012-2.19" transform="translate(924.244 252.491)" fill="#58595b"/>
      <path id="패스_39421" data-name="패스 39421" d="M68.5,248.289a2.826,2.826,0,0,1,2.567,0,.785.785,0,0,1-.008,1.486,2.826,2.826,0,0,1-2.567,0,.785.785,0,0,1,.008-1.486" transform="translate(924.244 252.491)" fill="#414042"/>
      <path id="패스_39422" data-name="패스 39422" d="M59.984,255.336c5.372,3.12,14.112,3.12,19.519,0,2.858-1.65,4.216-3.841,4.063-6-.136,1.941-1.494,3.867-4.063,5.35-5.407,3.121-14.147,3.121-19.519,0-2.53-1.474-3.865-3.373-4-5.3-.153,2.146,1.182,4.315,4,5.952m.692-5.3c-.757.438-1.049,1.042-.874,1.611a1.782,1.782,0,0,1,.874-.961,4.876,4.876,0,0,1,4.43,0,1.757,1.757,0,0,1,.854.945c.175-.562-.11-1.163-.857-1.6a4.879,4.879,0,0,0-4.427,0m6.56-3.955c.176-.561-.11-1.162-.857-1.6a4.879,4.879,0,0,0-4.427,0c-.766.442-1.055,1.055-.873,1.623a1.776,1.776,0,0,1,.873-.974,4.885,4.885,0,0,1,4.427,0,1.785,1.785,0,0,1,.857.948m1.53,6.361c-.763.438-1.052,1.049-.874,1.617a1.792,1.792,0,0,1,.874-.968,4.885,4.885,0,0,1,4.427,0,1.759,1.759,0,0,1,.857.949c.176-.562-.11-1.163-.857-1.6a4.879,4.879,0,0,0-4.427,0m8.064-7.081c.176-.562-.11-1.163-.857-1.6a4.879,4.879,0,0,0-4.427,0c-.757.438-1.049,1.046-.873,1.611a1.776,1.776,0,0,1,.873-.961,4.879,4.879,0,0,1,4.427,0,1.779,1.779,0,0,1,.857.948m3.953,4.792c.179-.562-.11-1.162-.857-1.6a4.867,4.867,0,0,0-4.427,0c-.76.438-1.049,1.048-.871,1.613a1.781,1.781,0,0,1,.871-.964,4.87,4.87,0,0,1,4.427,0,1.782,1.782,0,0,1,.857.948" transform="translate(924.244 252.491)" fill="#808285"/>
      <path id="패스_39423" data-name="패스 39423" d="M77.287,247.567a4.873,4.873,0,0,1-4.424,0,1.353,1.353,0,0,1,.013-2.562,4.87,4.87,0,0,1,4.427,0c1.218.707,1.213,1.853-.016,2.562m-6.734,3.886a4.879,4.879,0,0,1-4.427,0c-1.219-.709-1.211-1.857.017-2.565a4.879,4.879,0,0,1,4.427,0c1.218.707,1.209,1.855-.017,2.562m2.782-8.677a4.885,4.885,0,0,1-4.427,0,1.355,1.355,0,0,1,.014-2.564,4.885,4.885,0,0,1,4.427,0,1.355,1.355,0,0,1-.014,2.564m-10.87,6.274a4.885,4.885,0,0,1-4.427,0,1.355,1.355,0,0,1,.014-2.564,4.885,4.885,0,0,1,4.427,0,1.355,1.355,0,0,1-.014,2.564m1.277-5.552a4.886,4.886,0,0,1-4.429,0,1.355,1.355,0,0,1,.015-2.564,4.885,4.885,0,0,1,4.427,0,1.355,1.355,0,0,1-.013,2.565m-6.318-3.671c-5.408,3.121-5.436,8.182-.064,11.3s14.112,3.122,19.52,0,5.436-8.181.064-11.3-14.112-3.121-19.52,0" transform="translate(924.244 252.491)" fill="#939598"/>
      <path id="패스_39424" data-name="패스 39424" d="M57.361,251.782c5.371,3.12,14.111,3.12,19.518,0,2.858-1.65,4.216-3.841,4.063-6-.136,1.941-1.494,3.867-4.063,5.35-5.407,3.121-14.147,3.121-19.518,0-2.531-1.474-3.866-3.373-4-5.3-.153,2.146,1.182,4.315,4,5.952m.691-5.3c-.757.438-1.049,1.042-.874,1.611a1.791,1.791,0,0,1,.874-.962,4.879,4.879,0,0,1,4.43,0,1.753,1.753,0,0,1,.854.945c.175-.562-.11-1.163-.857-1.6a4.879,4.879,0,0,0-4.427,0m6.56-3.955c.176-.561-.11-1.162-.857-1.6a4.879,4.879,0,0,0-4.427,0c-.765.442-1.055,1.055-.874,1.623a1.786,1.786,0,0,1,.874-.974,4.879,4.879,0,0,1,4.427,0,1.785,1.785,0,0,1,.857.948m1.53,6.361c-.763.438-1.052,1.049-.874,1.617a1.792,1.792,0,0,1,.874-.968,4.885,4.885,0,0,1,4.427,0,1.759,1.759,0,0,1,.857.949c.176-.562-.11-1.163-.857-1.6a4.879,4.879,0,0,0-4.427,0m8.064-7.081c.176-.562-.11-1.163-.857-1.6a4.879,4.879,0,0,0-4.427,0c-.756.438-1.049,1.046-.873,1.611a1.784,1.784,0,0,1,.873-.962,4.885,4.885,0,0,1,4.427,0,1.784,1.784,0,0,1,.857.949M78.16,246.6c.178-.562-.111-1.162-.858-1.6a4.873,4.873,0,0,0-4.427,0c-.76.439-1.049,1.049-.871,1.614a1.781,1.781,0,0,1,.871-.964,4.87,4.87,0,0,1,4.427,0,1.788,1.788,0,0,1,.858.948" transform="translate(924.244 252.491)" fill="#727272"/>
      <path id="패스_39425" data-name="패스 39425" d="M56.585,241.713c0,.038.008.075.013.113s.011.091.019.136.015.076.024.114.02.09.032.134.022.076.034.114.028.089.045.134.028.075.044.113.037.088.058.132.035.075.055.113.046.087.07.131.043.074.065.111.055.087.084.13.049.073.075.11.064.086.1.129.055.071.084.107.054.061.081.092c.061.07.125.14.192.208l.085.086c.086.085.177.168.273.251l.028.025c.106.09.22.179.338.267l.1.075c.09.064.183.128.279.19l.126.082c.085.053.173.1.263.157.042.025.082.05.125.074q.2.112.417.221c.233.116.477.224.726.328.074.031.149.059.224.089.17.067.343.129.518.19.125.043.251.086.379.126.16.051.323.1.488.144.13.037.26.073.392.106.169.043.341.082.513.119.134.03.266.059.4.086.178.034.359.064.54.094.133.022.266.046.4.065.283.04.567.076.854.1l.146.012c.253.024.508.042.764.056l.243.012c.3.013.6.021.9.021a17.122,17.122,0,0,0,7.469-1.552c2.051-1.032,3.075-2.383,3.075-3.735v4.447c0,1.353-1.024,2.7-3.075,3.736a17.122,17.122,0,0,1-7.469,1.552c-.3,0-.6-.009-.9-.021l-.243-.013c-.256-.013-.511-.032-.764-.055l-.146-.012c-.249-.025-.5-.053-.743-.087l-.111-.017c-.134-.02-.266-.043-.4-.065-.182-.03-.363-.06-.541-.1-.135-.026-.267-.056-.4-.085-.172-.038-.343-.076-.512-.119-.133-.033-.263-.07-.393-.106-.165-.046-.328-.093-.488-.144-.128-.04-.254-.083-.379-.126-.079-.027-.161-.051-.239-.08-.095-.034-.185-.074-.278-.11-.076-.03-.151-.059-.225-.09-.249-.1-.493-.211-.726-.327-.145-.073-.283-.147-.417-.222l-.124-.072c-.09-.052-.179-.1-.264-.158l-.058-.035-.068-.047c-.1-.063-.189-.126-.28-.191l-.1-.074c-.118-.088-.232-.177-.338-.267l-.029-.026c-.1-.082-.186-.166-.272-.25l-.085-.086c-.067-.069-.131-.138-.192-.208-.016-.018-.034-.035-.05-.054s-.02-.025-.03-.038c-.03-.036-.057-.072-.085-.108s-.067-.085-.1-.129-.05-.072-.075-.109-.057-.086-.084-.13-.044-.074-.065-.111-.048-.088-.07-.131-.038-.075-.055-.113-.04-.088-.058-.132-.031-.076-.044-.114-.031-.088-.045-.133-.024-.076-.034-.114-.023-.09-.032-.135-.017-.075-.024-.113-.014-.091-.019-.136-.01-.076-.013-.113l0-.039c0-.06-.006-.121-.006-.181v-4.448c0,.073,0,.147.01.22" transform="translate(924.244 252.491)" fill="#222122"/>
      <path id="패스_39426" data-name="패스 39426" d="M67.187,246.814a17.122,17.122,0,0,0,7.469-1.553c4.119-2.072,4.1-5.43-.047-7.5a18.768,18.768,0,0,0-14.96,0c-4.115,2.07-4.1,5.431.047,7.5a17.265,17.265,0,0,0,7.491,1.553" transform="translate(924.244 252.491)" fill="#3c3b3d"/>
      <g id="그룹_15977" data-name="그룹 15977" transform="translate(924.244 252.491)" opacity="0.9">
        <g id="그룹_15976" data-name="그룹 15976">
          <g id="그룹_15975" data-name="그룹 15975" clip-path="url(#clip-path-4)">
            <path id="패스_39427" data-name="패스 39427" d="M53.358,241.066c-.051,2.067,1.284,4.141,4,5.721,5.375,3.123,14.114,3.123,19.521,0a10.527,10.527,0,0,0,2.289-1.744,5.874,5.874,0,0,0,1.726-3.231,4.733,4.733,0,0,0-.316-2.547,8.155,8.155,0,0,0-3.636-3.781c-5.375-3.123-14.114-3.123-19.521,0-.348.2-.67.411-.974.62a8.174,8.174,0,0,0-2.415,2.566,5.037,5.037,0,0,0-.677,2.4M64.4,237.147c.5.664.278,1.466-.664,2.01a4.17,4.17,0,0,1-1.492.474,5.03,5.03,0,0,1-2.561-.3,3.009,3.009,0,0,1-.373-.183c-1.221-.708-1.214-1.852.012-2.561.051-.031.108-.056.165-.088a4.913,4.913,0,0,1,4.262.088,2.146,2.146,0,0,1,.651.557m9.074,1.188a1.035,1.035,0,0,1-.145.095,4.877,4.877,0,0,1-4.426,0,1.811,1.811,0,0,1-.8-.8c-.291-.607-.019-1.284.809-1.764a4.879,4.879,0,0,1,4.427,0c1.17.676,1.214,1.764.132,2.465m4.636,3.149c.272.6-.007,1.264-.829,1.738a4.865,4.865,0,0,1-4.42,0c-1.119-.651-1.208-1.669-.259-2.377a2.3,2.3,0,0,1,.272-.183,4.877,4.877,0,0,1,4.426,0,1.859,1.859,0,0,1,.81.822M66.144,244.55a4.879,4.879,0,0,1,4.427,0c1.214.708,1.207,1.852-.019,2.56a4.879,4.879,0,0,1-4.427,0c-1.22-.708-1.208-1.852.019-2.56m-8.094-2.409a3.367,3.367,0,0,1,.575-.259,4.915,4.915,0,0,1,3.851.259,2.454,2.454,0,0,1,.532.411c.651.689.468,1.574-.544,2.156a4.879,4.879,0,0,1-4.427,0,1.359,1.359,0,0,1,.013-2.567" fill="#a7a9ac"/>
          </g>
        </g>
      </g>
      <g id="그룹_15980" data-name="그룹 15980" transform="translate(924.244 252.491)" opacity="0.3">
        <g id="그룹_15979" data-name="그룹 15979">
          <g id="그룹_15978" data-name="그룹 15978" clip-path="url(#clip-path-5)">
            <path id="패스_39428" data-name="패스 39428" d="M53.358,241.066l5.268.816a4.912,4.912,0,0,1,3.851.259,2.416,2.416,0,0,1,.531.411l16.163,2.49a5.868,5.868,0,0,0,1.726-3.23l-2.782-.329c.272.6-.007,1.265-.829,1.739a4.865,4.865,0,0,1-4.42,0c-1.119-.651-1.208-1.669-.259-2.377l-10.358-1.214-2.561-.3-5.653-.664a5.037,5.037,0,0,0-.677,2.4" fill="#fff"/>
          </g>
        </g>
      </g>
      <path id="패스_39429" data-name="패스 39429" d="M65.266,240.041a4.167,4.167,0,0,1,3.782,0,1.157,1.157,0,0,1-.01,2.191,4.168,4.168,0,0,1-3.784,0,1.157,1.157,0,0,1,.012-2.19" transform="translate(924.244 252.491)" fill="#58595b"/>
      <path id="패스_39430" data-name="패스 39430" d="M65.873,240.392a2.826,2.826,0,0,1,2.567,0,.785.785,0,0,1-.008,1.486,2.826,2.826,0,0,1-2.567,0,.785.785,0,0,1,.008-1.486" transform="translate(924.244 252.491)" fill="#414042"/>
      <path id="패스_39431" data-name="패스 39431" d="M57.361,247.438c5.371,3.12,14.111,3.12,19.518,0,2.858-1.65,4.216-3.841,4.063-6-.136,1.941-1.494,3.867-4.063,5.35-5.407,3.121-14.147,3.121-19.518,0-2.531-1.474-3.866-3.373-4-5.3-.153,2.146,1.182,4.315,4,5.952m.691-5.3c-.757.438-1.049,1.042-.874,1.61a1.793,1.793,0,0,1,.874-.961,4.879,4.879,0,0,1,4.43,0,1.753,1.753,0,0,1,.854.945c.175-.562-.11-1.163-.857-1.6a4.879,4.879,0,0,0-4.427,0m6.56-3.955c.176-.561-.11-1.162-.857-1.6a4.879,4.879,0,0,0-4.427,0c-.765.441-1.055,1.055-.874,1.623a1.786,1.786,0,0,1,.874-.974,4.879,4.879,0,0,1,4.427,0,1.785,1.785,0,0,1,.857.948m1.53,6.361c-.763.438-1.052,1.049-.874,1.617a1.792,1.792,0,0,1,.874-.968,4.885,4.885,0,0,1,4.427,0,1.761,1.761,0,0,1,.857.948c.176-.561-.11-1.162-.857-1.6a4.879,4.879,0,0,0-4.427,0m8.064-7.081c.176-.562-.11-1.163-.857-1.6a4.879,4.879,0,0,0-4.427,0c-.756.438-1.049,1.046-.873,1.611a1.784,1.784,0,0,1,.873-.962,4.885,4.885,0,0,1,4.427,0,1.784,1.784,0,0,1,.857.949m3.954,4.792c.178-.562-.111-1.162-.858-1.6a4.873,4.873,0,0,0-4.427,0c-.76.439-1.049,1.049-.871,1.614a1.781,1.781,0,0,1,.871-.964,4.87,4.87,0,0,1,4.427,0,1.788,1.788,0,0,1,.858.948" transform="translate(924.244 252.491)" fill="#808285"/>
      <g id="그룹_15983" data-name="그룹 15983" transform="translate(924.244 252.491)" opacity="0.3">
        <g id="그룹_15982" data-name="그룹 15982">
          <g id="그룹_15981" data-name="그룹 15981" clip-path="url(#clip-path-6)">
            <path id="패스_39432" data-name="패스 39432" d="M56.451,236.1l3.042.4a4.911,4.911,0,0,1,4.261.089,2.144,2.144,0,0,1,.651.556l3.706.487c-.291-.607-.019-1.283.809-1.764a4.879,4.879,0,0,1,4.427,0c1.169.677,1.215,1.764.132,2.466l7.1.929a8.154,8.154,0,0,0-3.636-3.781c-5.375-3.122-14.115-3.122-19.521,0-.348.2-.67.411-.973.62" fill="#fff"/>
          </g>
        </g>
      </g>
      <path id="패스_39433" data-name="패스 39433" d="M43.071,251.028a4.884,4.884,0,0,0,2.215,3.831,1.42,1.42,0,0,0,1.812-.029,1.87,1.87,0,0,1-1.163-.292A4.891,4.891,0,0,1,43.72,250.7a1.745,1.745,0,0,1,.416-1.237c-.637.081-1.062.643-1.065,1.562m1.961,8.205a4.882,4.882,0,0,0,2.215,3.831,1.416,1.416,0,0,0,1.813-.036,1.832,1.832,0,0,1-1.163-.289,4.878,4.878,0,0,1-2.215-3.831,1.745,1.745,0,0,1,.412-1.237c-.636.081-1.058.643-1.062,1.562m12.68,9.8c2.1-.85,3.442-3.149,3.452-6.571.016-6.208-4.352-13.777-9.76-16.9-2.747-1.588-5.235-1.721-7.021-.649,1.715-.695,3.943-.429,6.372.974,5.408,3.12,9.776,10.685,9.76,16.9-.01,3.052-1.075,5.211-2.8,6.243M48.52,249.352a4.883,4.883,0,0,0,2.215,3.838,1.421,1.421,0,0,0,1.816-.036,1.845,1.845,0,0,1-1.166-.289,4.878,4.878,0,0,1-2.215-3.834,1.754,1.754,0,0,1,.412-1.237c-.636.081-1.058.639-1.062,1.558m3.248,13.767a4.88,4.88,0,0,0,2.212,3.831,1.419,1.419,0,0,0,1.815-.032,1.88,1.88,0,0,1-1.165-.292,4.879,4.879,0,0,1-2.212-3.832,1.753,1.753,0,0,1,.412-1.237c-.636.082-1.059.643-1.062,1.562m4.388-1.987a1.42,1.42,0,0,0,1.812-.029,1.861,1.861,0,0,1-1.162-.292,4.886,4.886,0,0,1-2.215-3.835,1.75,1.75,0,0,1,.415-1.237c-.636.081-1.062.643-1.065,1.562a4.884,4.884,0,0,0,2.215,3.831" transform="translate(924.244 252.491)" fill="#808285"/>
      <g id="그룹_15986" data-name="그룹 15986" transform="translate(924.244 252.491)" opacity="0.9">
        <g id="그룹_15985" data-name="그룹 15985">
          <g id="그룹_15984" data-name="그룹 15984" clip-path="url(#clip-path-7)">
            <path id="패스_39434" data-name="패스 39434" d="M53.981,266.951a4.874,4.874,0,0,1-2.211-3.83c0-1.41,1-1.978,2.226-1.27a4.874,4.874,0,0,1,2.213,3.833c0,1.407-1,1.975-2.228,1.267m-6.735-3.888a4.875,4.875,0,0,1-2.214-3.83c0-1.411,1-1.977,2.228-1.27a4.877,4.877,0,0,1,2.214,3.833c0,1.408-1,1.975-2.228,1.267m8.91-1.929a4.88,4.88,0,0,1-2.214-3.833c0-1.408,1-1.977,2.228-1.27a4.882,4.882,0,0,1,2.214,3.833c0,1.408-1,1.977-2.228,1.27m-10.87-6.274a4.88,4.88,0,0,1-2.214-3.833c0-1.408,1-1.977,2.228-1.27a4.882,4.882,0,0,1,2.214,3.834c0,1.407-1,1.976-2.228,1.269m5.448-1.67a4.883,4.883,0,0,1-2.213-3.836c0-1.407,1-1.976,2.228-1.269a4.88,4.88,0,0,1,2.213,3.833c0,1.41-1,1.979-2.228,1.272m.021-7.306c-5.408-3.121-9.806-.616-9.824,5.6s4.352,13.778,9.76,16.9,9.806.616,9.824-5.6-4.352-13.779-9.76-16.9" fill="#a7a9ac"/>
          </g>
        </g>
      </g>
      <path id="패스_39435" data-name="패스 39435" d="M44.891,266.65l8.379,4.836,1.138.658,2.023,1.169,4.478,2.586,4.217,2.434,3.238-1.891.6-.354-4.952-2.775-.9-.512-2.725-1.523-11.952-6.7Z" transform="translate(924.244 252.491)" fill="#222122"/>
      <path id="패스_39436" data-name="패스 39436" d="M52.809,262.508c-.019-.2-.041-.394-.072-.593-.006-.039-.011-.078-.017-.118-.038-.231-.085-.462-.136-.7-.026-.115-.056-.232-.086-.348-.04-.162-.082-.323-.129-.485-.028-.094-.057-.188-.086-.282q-.085-.273-.183-.546c-.027-.074-.053-.149-.081-.223-.094-.251-.193-.5-.3-.749-.013-.028-.027-.057-.039-.085q-.148-.333-.312-.661c-.033-.068-.068-.136-.1-.2-.106-.206-.217-.411-.332-.613-.022-.04-.043-.079-.066-.118-.137-.237-.281-.469-.429-.7-.043-.066-.088-.132-.132-.2q-.165-.246-.338-.485c-.062-.087-.125-.172-.189-.257-.1-.133-.2-.263-.307-.392-.088-.109-.176-.217-.265-.323-.159-.187-.319-.372-.484-.548l-.009-.009c-.166-.177-.338-.345-.511-.51-.076-.073-.153-.144-.23-.214q-.19-.174-.386-.337c-.077-.065-.154-.13-.232-.193-.142-.112-.285-.219-.429-.323-.069-.049-.137-.1-.206-.149-.214-.147-.43-.286-.65-.413-.145-.084-.289-.16-.432-.232l-.124-.061c-.109-.053-.218-.1-.325-.148-.038-.017-.076-.034-.114-.049-.1-.042-.2-.08-.3-.116-.024-.008-.048-.018-.072-.027-.124-.042-.247-.08-.368-.113-.07-.019-.14-.036-.209-.052-.034-.008-.069-.018-.1-.025-.1-.022-.207-.042-.308-.057a4.576,4.576,0,0,0-.456-.046l-.09-.005c-.134-.005-.266,0-.4,0-.023,0-.045,0-.068.006-.1.008-.207.02-.307.036l-.1.016a3.423,3.423,0,0,0-.34.078l-.016.006a2.839,2.839,0,0,0-.306.108c-.03.011-.059.024-.088.037-.085.037-.169.078-.251.122-.027.015-.055.028-.081.043l4.578-2.659.037-.022c.014-.008.03-.014.044-.021.082-.045.166-.086.251-.123l.047-.023.041-.014c.1-.04.2-.077.306-.108l.013-.005h0a3.229,3.229,0,0,1,.34-.079c.014,0,.026-.007.04-.009s.037,0,.055-.006c.1-.016.2-.029.307-.036.017,0,.033-.005.05-.006h.018c.129-.008.261-.008.4,0,.013,0,.025,0,.038,0l.052.005c.149.009.3.022.456.046h0c.1.016.2.035.307.057l.1.025c.064.015.127.029.192.046l.019.006c.121.034.244.071.368.114l.072.026c.1.036.2.074.3.116.013.006.026.01.04.015s.049.023.074.034c.108.046.216.1.326.149l.123.06c.143.072.287.148.432.232.22.127.436.266.65.413.07.048.137.1.206.15.144.1.287.21.429.322.078.063.155.128.233.193q.195.164.385.337c.077.07.154.141.23.214.048.046.1.088.145.135q.186.183.366.376l.009.008q.188.2.369.409c.039.045.076.093.114.139.09.106.178.214.266.323.057.071.117.139.174.211s.088.121.133.181c.064.085.127.171.19.257.043.06.088.117.13.177.071.1.138.205.206.308.045.066.09.132.133.2.018.027.038.054.056.082q.182.285.352.576l.021.039c.023.039.044.079.066.118.079.138.158.277.233.417.034.065.066.131.1.2s.07.135.1.2.061.118.09.179c.077.159.149.319.22.48l.04.087.011.024c.088.2.171.406.25.611.014.038.026.075.04.113.029.074.054.149.081.224.036.1.076.2.11.306.026.08.048.16.073.24s.058.187.086.28c.017.058.037.116.053.174.029.1.05.208.076.313s.06.232.086.348c.009.04.021.081.03.121q.06.288.106.573c.006.04.012.079.017.118.013.085.028.17.039.254.015.114.022.226.033.339.008.081.018.162.024.242.019.253.031.505.03.753-.006,2.15-.765,3.662-1.989,4.373l-4.578,2.659c1.224-.711,1.983-2.223,1.989-4.372,0-.248-.011-.5-.03-.753-.006-.081-.016-.161-.024-.242" transform="translate(924.244 252.491)" fill="#222122"/>
      <path id="패스_39437" data-name="패스 39437" d="M46.069,251.739c-3.766-2.173-6.828-.431-6.84,3.9a14.969,14.969,0,0,0,6.8,11.767c3.763,2.172,6.825.428,6.838-3.9a14.966,14.966,0,0,0-6.794-11.764" transform="translate(924.244 252.491)" fill="#3c3b3d"/>
      <path id="패스_39438" data-name="패스 39438" d="M38.411,253.434a4.884,4.884,0,0,0,2.215,3.831,1.42,1.42,0,0,0,1.812-.029,1.87,1.87,0,0,1-1.163-.292,4.891,4.891,0,0,1-2.215-3.835,1.745,1.745,0,0,1,.416-1.237c-.637.081-1.062.643-1.065,1.562m1.961,8.205a4.882,4.882,0,0,0,2.215,3.831,1.416,1.416,0,0,0,1.813-.036,1.831,1.831,0,0,1-1.163-.289,4.876,4.876,0,0,1-2.215-3.831,1.744,1.744,0,0,1,.412-1.237c-.636.081-1.059.643-1.062,1.562m12.68,9.795c2.1-.85,3.442-3.149,3.452-6.571.016-6.208-4.352-13.777-9.76-16.9-2.747-1.588-5.235-1.721-7.021-.649,1.714-.7,3.942-.429,6.372.974,5.407,3.12,9.776,10.685,9.76,16.9-.01,3.052-1.076,5.211-2.8,6.243M43.86,251.758a4.883,4.883,0,0,0,2.215,3.838,1.421,1.421,0,0,0,1.816-.036,1.845,1.845,0,0,1-1.166-.289,4.878,4.878,0,0,1-2.215-3.834,1.754,1.754,0,0,1,.412-1.237c-.636.081-1.058.639-1.062,1.558m3.248,13.767a4.88,4.88,0,0,0,2.212,3.831,1.419,1.419,0,0,0,1.815-.032,1.884,1.884,0,0,1-1.166-.292,4.878,4.878,0,0,1-2.211-3.832,1.753,1.753,0,0,1,.412-1.237c-.636.082-1.059.643-1.062,1.562m4.388-1.987a1.42,1.42,0,0,0,1.812-.029,1.861,1.861,0,0,1-1.162-.292,4.886,4.886,0,0,1-2.215-3.835,1.75,1.75,0,0,1,.415-1.237c-.636.081-1.062.643-1.065,1.562a4.884,4.884,0,0,0,2.215,3.831" transform="translate(924.244 252.491)" fill="#808285"/>
      <g id="그룹_15989" data-name="그룹 15989" transform="translate(924.244 252.491)" opacity="0.9">
        <g id="그룹_15988" data-name="그룹 15988">
          <g id="그룹_15987" data-name="그룹 15987" clip-path="url(#clip-path-8)">
            <path id="패스_39439" data-name="패스 39439" d="M49.321,269.356a4.874,4.874,0,0,1-2.211-3.83c0-1.41,1-1.978,2.226-1.27a4.874,4.874,0,0,1,2.213,3.833c0,1.407-1,1.975-2.228,1.267m-6.735-3.888a4.875,4.875,0,0,1-2.214-3.83c0-1.411,1-1.977,2.228-1.27a4.877,4.877,0,0,1,2.214,3.833c0,1.408-1,1.975-2.228,1.267m8.91-1.929a4.88,4.88,0,0,1-2.214-3.833c0-1.408,1-1.977,2.228-1.27a4.882,4.882,0,0,1,2.214,3.833c0,1.408-1,1.977-2.228,1.27m-10.87-6.274a4.88,4.88,0,0,1-2.214-3.833c0-1.408,1-1.977,2.228-1.27A4.882,4.882,0,0,1,42.854,256c0,1.407-1,1.976-2.228,1.269m5.448-1.67a4.883,4.883,0,0,1-2.213-3.836c0-1.407,1-1.976,2.228-1.269a4.88,4.88,0,0,1,2.213,3.833c0,1.41-1,1.979-2.228,1.272m.021-7.306c-5.408-3.121-9.806-.616-9.824,5.6s4.352,13.778,9.76,16.9,9.806.616,9.824-5.6-4.352-13.779-9.76-16.9" fill="#a7a9ac"/>
          </g>
        </g>
      </g>
      <path id="패스_39440" data-name="패스 39440" d="M46.056,257.357a4.166,4.166,0,0,0-1.891,3.275c0,1.206.854,1.691,1.9,1.085a4.163,4.163,0,0,0,1.892-3.275c0-1.2-.854-1.691-1.9-1.085" transform="translate(924.244 252.491)" fill="#58595b"/>
      <path id="패스_39441" data-name="패스 39441" d="M46.058,258.057a2.831,2.831,0,0,0-1.284,2.223c0,.816.582,1.146,1.292.736a2.831,2.831,0,0,0,1.284-2.223c0-.816-.581-1.146-1.292-.736" transform="translate(924.244 252.491)" fill="#414042"/>
      <path id="패스_39442" data-name="패스 39442" d="M64.013,273.314H56.431l4.477,2.586,7.456.543.6-.354Z" transform="translate(924.244 252.491)" fill="#3c3b3d"/>
      <path id="패스_39443" data-name="패스 39443" d="M53.27,271.487l1.138.657,8.7.658-2.725-1.524Z" transform="translate(924.244 252.491)" fill="#3c3b3d"/>
    </g>
    <g id="그룹_16684" data-name="그룹 16684">
      <path id="패스_39444" data-name="패스 39444" d="M6.819,33.272,15.765,31.2l.009,3.149,0,1.343.035,12.073a6.05,6.05,0,0,1-1.569,3.854,6.382,6.382,0,0,1-1.691,1.528c-.718.415-1.34.453-1.651.016-.545-.764.069-2.7,1.37-4.313a6.353,6.353,0,0,1,1.687-1.525,1.7,1.7,0,0,1,1.283-.289l-.032-11.211L7.388,37.634l.028,9.82a6.044,6.044,0,0,1-1.568,3.852,6.4,6.4,0,0,1-1.692,1.529c-.718.415-1.339.453-1.65.016-.544-.766.069-2.7,1.37-4.314a6.389,6.389,0,0,1,1.69-1.527,1.692,1.692,0,0,1,1.279-.288L6.81,34.364Z" transform="translate(924.244 252.491)" fill="#646464"/>
      <path id="패스_39445" data-name="패스 39445" d="M2.506,52.851c-.544-.767.069-2.7,1.37-4.315A6.4,6.4,0,0,1,5.565,47.01a1.687,1.687,0,0,1,1.28-.288L6.81,34.363l.009-1.091L15.737,31.2l.01-.016-2.29-1.322L4.512,31.94,4.5,33.031,4.538,45.39a1.687,1.687,0,0,0-1.28.288A6.414,6.414,0,0,0,1.568,47.2C.268,48.822-.345,50.752.2,51.519a.721.721,0,0,0,.21.192l0,.005,2.5,1.443.016-.028a.708.708,0,0,1-.416-.28" transform="translate(924.244 252.491)" fill="#4d4d4d"/>
      <path id="패스_39446" data-name="패스 39446" d="M11.1,53.349a.712.712,0,0,1-.2-.188c-.546-.763.069-2.7,1.369-4.312a6.379,6.379,0,0,1,1.688-1.526,1.7,1.7,0,0,1,1.282-.289l-.032-11.211-2.3.533.027,9.346a1.7,1.7,0,0,0-1.282.289,6.363,6.363,0,0,0-1.688,1.526c-1.3,1.616-1.915,3.549-1.369,4.312a.706.706,0,0,0,.308.247h0Z" transform="translate(924.244 252.491)" fill="#4d4d4d"/>
    </g>
    <g id="after-04" transform="translate(738.034 467.491)">
      <path id="패스_40869" data-name="패스 40869" d="M9.369,22.153l8.6-5,0,35.906-8.6,5Z" fill="#29a2ae" fill-rule="evenodd"/>
      <path id="패스_40870" data-name="패스 40870" d="M0,16.746l0,35.9,9.365,5.409.005-35.906L.007,16.746Z" fill="#b72e22"/>
      <path id="패스_40871" data-name="패스 40871" d="M.007,16.746,9.6,22.754l8.375-5.6-9.364-5.4Z" fill="#e84727"/>
      <path id="패스_40872" data-name="패스 40872" d="M18.2,10.177,27.336,5.4l0,53.048-8.6,5Z" fill="#064478" fill-rule="evenodd"/>
      <path id="패스_40873" data-name="패스 40873" d="M18.734,10.4l-.005,53.049L9.365,58.047,9.37,5l0,0Z" fill="#105794" fill-rule="evenodd"/>
      <path id="패스_40874" data-name="패스 40874" d="M17.974,0l-8.6,5,9.343,5.69L27.336,5.4Z" fill="#1565ab"/>
      <path id="패스_40875" data-name="패스 40875" d="M28.079,27.239l8.6-5,0,41.621-8.6,5Z" fill="#29a2ae" fill-rule="evenodd"/>
      <path id="패스_40876" data-name="패스 40876" d="M28.079,27.239l-.005,41.618-9.362-5.4,0-41.62h0Z" fill="#f0a828" fill-rule="evenodd"/>
      <path id="패스_40877" data-name="패스 40877" d="M36.681,22.239l-8.525,5.9-9.439-6.311,8.6-5Z" fill="#efca2b" fill-rule="evenodd"/>
      <path id="패스_40878" data-name="패스 40878" d="M37.011,15.491l.447,58.763,8.6-5,0-58.762Z" fill="#0c7981"/>
      <path id="패스_40879" data-name="패스 40879" d="M28.1,10.086l-.005,58.761,9.365,5.406,0-58.763L28.1,10.083Z" fill="#13919a"/>
      <path id="패스_40880" data-name="패스 40880" d="M28.1,10.084l9.362,5.784,8.6-5.377L36.7,5.086Z" fill="#1aa7b2"/>
    </g>
    <g id="그룹_16681" data-name="그룹 16681">
      <path id="패스_43644" data-name="패스 43644" d="M393.263,56.647h-5.8l.022-3.637h5.8Z" transform="translate(798.099 760.491)" fill="#081929"/>
      <path id="패스_43645" data-name="패스 43645" d="M392.456,55.481c1.108.668,1.073,1.73-.084,2.374a4.511,4.511,0,0,1-4.1-.041c-1.11-.665-1.072-1.73.085-2.374a4.512,4.512,0,0,1,4.1.041" transform="translate(798.099 760.491)" fill="#081929"/>
      <path id="패스_43646" data-name="패스 43646" d="M396.09,49.305c3.02,1.815,2.914,4.707-.231,6.462a12.276,12.276,0,0,1-11.149-.114c-3.018-1.815-2.912-4.707.23-6.459a12.287,12.287,0,0,1,11.15.111" transform="translate(798.099 760.491)" fill="#134663"/>
      <path id="패스_43647" data-name="패스 43647" d="M384.544,54.881a6.354,6.354,0,0,1-1.391-1.1,5.573,5.573,0,0,1-.429-.511,4.46,4.46,0,0,1-.415-.717,3.682,3.682,0,0,1-.242-.717,3.375,3.375,0,0,1-.084-.709,3.5,3.5,0,0,1,.032-.54,3.631,3.631,0,0,1,.179-.717,4.106,4.106,0,0,1,.7-1.212,5.822,5.822,0,0,1,1.1-1.04,9.334,9.334,0,0,1,3.521-1.529,13.7,13.7,0,0,1,2.439-.3,12.079,12.079,0,0,1,1.214.011,11.458,11.458,0,0,1,1.184.117,11.125,11.125,0,0,1,1.149.22,10.166,10.166,0,0,1,1.092.323,9.96,9.96,0,0,1,1.029.432c.2.092.445.236.633.347a.514.514,0,0,0-.166-.065,1.354,1.354,0,0,0-.885.209,10.374,10.374,0,0,0-9.42-.092c-2.656,1.48-2.743,3.922-.2,5.457a10.387,10.387,0,0,0,9.422.094c2.657-1.483,2.743-3.924.2-5.459a1.354,1.354,0,0,1,.885-.209.514.514,0,0,1,.166.065c.185.117.437.275.611.408a6.452,6.452,0,0,1,.671.578,5.794,5.794,0,0,1,.459.527,4.186,4.186,0,0,1,.448.725,3.613,3.613,0,0,1,.359,1.279,3.215,3.215,0,0,1,0,.612,3.574,3.574,0,0,1-.141.711,4.22,4.22,0,0,1-.3.712,5.421,5.421,0,0,1-.375.576,5.864,5.864,0,0,1-1.086,1.064,8.006,8.006,0,0,1-1.706.981,10.707,10.707,0,0,1-1.909.616,12.442,12.442,0,0,1-8.735-1.143" transform="translate(798.099 760.491)" fill="#02567d"/>
      <path id="패스_43648" data-name="패스 43648" d="M384.536,52.608a6.4,6.4,0,0,1-1.388-1.1,5,5,0,0,1-.429-.514,4.306,4.306,0,0,1-.416-.714,3.786,3.786,0,0,1-.241-.714,3.241,3.241,0,0,1-.084-.715,3.588,3.588,0,0,1,.032-.537,3.382,3.382,0,0,1,.177-.712,3.83,3.83,0,0,1,.342-.714,4.174,4.174,0,0,1,.418-.581,6.454,6.454,0,0,1,1.2-1.082,8.831,8.831,0,0,1,1.45-.79c.214-.092.5-.212.719-.28a10.307,10.307,0,0,1,1.188-.336,13.339,13.339,0,0,1,2.436-.31c.1-.005.614-.022,1.211.013.492.025.7.052,1.192.115,0,0,.522.07,1.144.222a10.33,10.33,0,0,1,1.092.326,9.137,9.137,0,0,1,1.029.429c.2.093.446.239.633.345a.579.579,0,0,0-.166-.062,1.346,1.346,0,0,0-.882.209,10.387,10.387,0,0,0-9.422-.1c-2.654,1.48-2.741,3.925-.193,5.457a10.377,10.377,0,0,0,9.417.1c2.658-1.481,2.743-3.922.2-5.457a1.346,1.346,0,0,1,.882-.209.579.579,0,0,1,.166.062c.188.117.437.275.611.408a6.573,6.573,0,0,1,.674.581,4.622,4.622,0,0,1,.907,1.252,3.679,3.679,0,0,1,.359,1.282,3.191,3.191,0,0,1,0,.609,3.4,3.4,0,0,1-.144.711,3.855,3.855,0,0,1-.3.712,4.647,4.647,0,0,1-.378.575,5.734,5.734,0,0,1-1.084,1.065,8.033,8.033,0,0,1-1.7.978,10.665,10.665,0,0,1-1.909.617,12.422,12.422,0,0,1-8.738-1.144" transform="translate(798.099 760.491)" fill="#02567d"/>
      <path id="패스_43649" data-name="패스 43649" d="M384.531,50.34a6.341,6.341,0,0,1-1.391-1.1,4.336,4.336,0,0,1-.423-.516,4.081,4.081,0,0,1-.421-.712,3.936,3.936,0,0,1-.239-.714,3.45,3.45,0,0,1-.087-.712,3.588,3.588,0,0,1,.032-.537,3.826,3.826,0,0,1,.519-1.424,4.151,4.151,0,0,1,.416-.583,5.971,5.971,0,0,1,1.2-1.076,8.078,8.078,0,0,1,1.456-.8,10.45,10.45,0,0,1,1.909-.616,13.065,13.065,0,0,1,2.434-.313c.266-.008.692-.013,1.211.014.494.027.7.052,1.19.117.005,0,.521.073,1.143.223a9.963,9.963,0,0,1,1.1.323,8.884,8.884,0,0,1,1.029.432c.2.092.446.236.63.345a.464.464,0,0,0-.163-.066,1.379,1.379,0,0,0-.882.21,10.38,10.38,0,0,0-9.423-.093c-2.656,1.478-2.743,3.922-.2,5.454a10.363,10.363,0,0,0,9.419.1c2.657-1.48,2.743-3.925.2-5.456a1.379,1.379,0,0,1,.882-.21.464.464,0,0,1,.163.066c.188.119.438.274.611.407a5.889,5.889,0,0,1,.679.587,4.59,4.59,0,0,1,.908,1.249,3.548,3.548,0,0,1,.353,1.888,3.632,3.632,0,0,1-.144.714,4.224,4.224,0,0,1-.679,1.285,5.76,5.76,0,0,1-1.084,1.064,8.179,8.179,0,0,1-1.7.981,11.2,11.2,0,0,1-1.912.614,12.414,12.414,0,0,1-8.735-1.141" transform="translate(798.099 760.491)" fill="#02567d"/>
      <path id="패스_43650" data-name="패스 43650" d="M384.523,48.066a6.365,6.365,0,0,1-1.391-1.1,5.85,5.85,0,0,1-.424-.516,4.27,4.27,0,0,1-.418-.715,3.716,3.716,0,0,1-.239-.714,3.342,3.342,0,0,1-.087-.714,4.176,4.176,0,0,1,.03-.535,3.8,3.8,0,0,1,.179-.712,3.7,3.7,0,0,1,.34-.709,4.463,4.463,0,0,1,.421-.584,6.122,6.122,0,0,1,1.2-1.078,8.275,8.275,0,0,1,1.451-.8,10.794,10.794,0,0,1,1.912-.616,13.125,13.125,0,0,1,2.434-.307c.266-.011.7-.019,1.211.008.494.027.7.054,1.192.12,0,0,.524.07,1.147.22a10.8,10.8,0,0,1,1.091.323,9.522,9.522,0,0,1,1.03.432c.193.092.442.236.63.345a.64.64,0,0,0-.163-.066,1.345,1.345,0,0,0-.885.215,10.365,10.365,0,0,0-9.42-.1c-2.656,1.477-2.743,3.922-.2,5.454a10.371,10.371,0,0,0,9.417.1c2.659-1.478,2.743-3.925.2-5.454a1.345,1.345,0,0,1,.885-.215.64.64,0,0,1,.163.066,7.154,7.154,0,0,1,1.073.787,5.154,5.154,0,0,1,.828.951,3.7,3.7,0,0,1,.622,1.57,3.449,3.449,0,0,1-.19,1.752,4.679,4.679,0,0,1-1.062,1.594,6.24,6.24,0,0,1-.63.54c-.177.142-.437.307-.63.43a9.687,9.687,0,0,1-1.32.654,11.962,11.962,0,0,1-3.493.788,12.394,12.394,0,0,1-1.817.019,11.94,11.94,0,0,1-1.8-.22c-.318-.065-.741-.171-1.062-.258-.171-.044-.4-.12-.565-.182a9.445,9.445,0,0,1-1.662-.777" transform="translate(798.099 760.491)" fill="#02567d"/>
      <path id="패스_43651" data-name="패스 43651" d="M395.859,52.863a12.3,12.3,0,0,1-11.15-.111,4.11,4.11,0,0,1-2.167-2.776c-.182,1.263.538,2.561,2.167,3.542a12.287,12.287,0,0,0,11.15.114c1.79-1,2.594-2.363,2.4-3.692a4.248,4.248,0,0,1-2.4,2.923" transform="translate(798.099 760.491)" fill="#134663"/>
      <path id="패스_43652" data-name="패스 43652" d="M395.859,50.543a12.3,12.3,0,0,1-11.15-.111,4.116,4.116,0,0,1-2.167-2.773c-.182,1.26.538,2.558,2.167,3.539a12.287,12.287,0,0,0,11.15.111c1.79-1,2.594-2.36,2.4-3.686a4.25,4.25,0,0,1-2.4,2.92" transform="translate(798.099 760.491)" fill="#134663"/>
      <path id="패스_43653" data-name="패스 43653" d="M395.859,48.319a12.287,12.287,0,0,1-11.15-.114,4.109,4.109,0,0,1-2.167-2.773c-.182,1.26.538,2.559,2.167,3.539a12.269,12.269,0,0,0,11.15.114c1.79-1,2.594-2.363,2.4-3.688a4.253,4.253,0,0,1-2.4,2.922" transform="translate(798.099 760.491)" fill="#134663"/>
      <path id="패스_43654" data-name="패스 43654" d="M395.859,46.108a11.407,11.407,0,0,1-5.495,1.1A11.162,11.162,0,0,1,384.709,46a4.116,4.116,0,0,1-2.167-2.773c-.182,1.26.538,2.558,2.167,3.539a12.3,12.3,0,0,0,11.15.117c1.79-1,2.594-2.363,2.4-3.692a4.238,4.238,0,0,1-2.4,2.92" transform="translate(798.099 760.491)" fill="#134663"/>
      <path id="패스_43655" data-name="패스 43655" d="M396.291,39.239c3.129,1.888,3.023,4.894-.239,6.717a12.707,12.707,0,0,1-11.571-.117c-3.128-1.888-3.02-4.894.242-6.72a12.725,12.725,0,0,1,11.568.12" transform="translate(798.099 760.491)" fill="#ffbf00"/>
      <path id="패스_43656" data-name="패스 43656" d="M408.044,16.261C407.254,6.692,400.072,0,390.452,0h-.125c-9.626,0-16.81,6.692-17.6,16.261-.385,4.683-.469,11.421,7.233,20.463a9.867,9.867,0,0,1,2.266,6.078c.1,1.215,5.969,2.008,8.159,2.165,2.191-.157,8.064-.95,8.159-2.165a9.882,9.882,0,0,1,2.268-6.078c7.7-9.042,7.618-15.78,7.23-20.463" transform="translate(798.099 760.491)" fill="#ffbf00"/>
      <g id="그룹_16631" data-name="그룹 16631" transform="translate(798.099 760.491)" opacity="0.4" style="mix-blend-mode: screen;isolation: isolate">
        <g id="그룹_16630" data-name="그룹 16630">
          <g id="그룹_16629" data-name="그룹 16629" clip-path="url(#clip-path-9)">
            <path id="패스_43657" data-name="패스 43657" d="M384.879,23.478c-1.134,3.365-4.082,5.4-6.587,4.563s-3.616-4.256-2.479-7.621,4.084-5.4,6.588-4.561,3.612,4.254,2.478,7.619" fill="#fff"/>
          </g>
        </g>
      </g>
      <path id="패스_43658" data-name="패스 43658" d="M401.311,18.687l-.065.046v-.1a3.927,3.927,0,0,0-1.372,1.494,2.56,2.56,0,0,1-.915,1.032.8.8,0,0,1-.913.024,1.257,1.257,0,0,0-1.379.093,3.98,3.98,0,0,0-1.372,1.494,2.56,2.56,0,0,1-.907,1.029.8.8,0,0,1-.913.024,1.265,1.265,0,0,0-1.377.09,4,4,0,0,0-1.372,1.494,2.513,2.513,0,0,1-.907,1.027.787.787,0,0,1-.912.024,1.263,1.263,0,0,0-1.375.092,3.92,3.92,0,0,0-1.371,1.494,2.559,2.559,0,0,1-.91,1.027.786.786,0,0,1-.913.027,1.257,1.257,0,0,0-1.379.092v.09a.892.892,0,0,0-.106.888l5.117,11.779c.005.012.013.025.019.042v5.7h.741V41.694h0a1.056,1.056,0,0,0-.065-.33l-5.019-11.506a.9.9,0,0,1,.231.093,1.256,1.256,0,0,0,1.382-.093,3.948,3.948,0,0,0,1.369-1.494,2.511,2.511,0,0,1,.907-1.026.808.808,0,0,1,.916-.027,1.257,1.257,0,0,0,1.374-.087,3.984,3.984,0,0,0,1.372-1.5A2.518,2.518,0,0,1,392.1,24.7a.8.8,0,0,1,.912-.028,1.251,1.251,0,0,0,1.377-.089,3.92,3.92,0,0,0,1.369-1.5,2.589,2.589,0,0,1,.908-1.024.806.806,0,0,1,.92-.027,1.266,1.266,0,0,0,1.377-.092,3.963,3.963,0,0,0,1.375-1.5,5.044,5.044,0,0,1,.331-.5l-8,19.113a1.6,1.6,0,0,0-.057.535v8.092h.744V38.87c0-.01.005-.019.008-.03l8.072-19.39c.125-.488.068-.831-.122-.763" transform="translate(798.099 760.491)" fill="#134663"/>
    </g>
    <g id="그룹_16680" data-name="그룹 16680">
      <path id="패스_43659" data-name="패스 43659" d="M24.059,19.856A12.03,12.03,0,1,0,5.736,30.109h0l.04.024.04.024L8.1,31.535a5.724,5.724,0,0,1,2.665,3.822l.892,4.651a.381.381,0,0,0,.749,0l.892-4.651a5.724,5.724,0,0,1,2.665-3.822l2.283-1.378.04-.024.041-.024h0a12.023,12.023,0,0,0,5.736-10.253" transform="translate(798.099 760.491)" fill="#ff5722"/>
      <path id="패스_43660" data-name="패스 43660" d="M16.727,19.856a4.7,4.7,0,1,1-4.7-4.7,4.7,4.7,0,0,1,4.7,4.7" transform="translate(798.099 760.491)" fill="#fff"/>
    </g>
    <g id="그룹_16678" data-name="그룹 16678">
      <path id="패스_43663" data-name="패스 43663" d="M103.054,73.063A12.029,12.029,0,1,0,84.731,83.316h0l.04.024.04.024,2.284,1.378a5.724,5.724,0,0,1,2.665,3.822l.892,4.651a.381.381,0,0,0,.748,0l.893-4.651a5.724,5.724,0,0,1,2.665-3.822l2.283-1.378.04-.024.041-.024h0a12.023,12.023,0,0,0,5.736-10.253" transform="translate(798.099 760.491)" fill="#ff5722"/>
      <path id="패스_43664" data-name="패스 43664" d="M95.721,73.063a4.7,4.7,0,1,1-4.7-4.7,4.7,4.7,0,0,1,4.7,4.7" transform="translate(798.099 760.491)" fill="#fff"/>
    </g>
    <g id="after-02" transform="translate(540 313.092)">
      <g id="그룹_15994" data-name="그룹 15994" clip-path="url(#clip-path-10)">
        <path id="패스_39447" data-name="패스 39447" d="M.157,116.581h0A.279.279,0,0,1,0,116.293l.53-3.9L3.22,113.7.479,116.525a.279.279,0,0,1-.322.056" fill="#959595"/>
        <path id="패스_39448" data-name="패스 39448" d="M10.3,104.166a8.136,8.136,0,0,1-6.621-3.223C2.365,99,3.2,97.286,5.541,97.12a8.142,8.142,0,0,1,6.621,3.223c1.314,1.946.481,3.657-1.861,3.823" fill="#396ca9"/>
        <path id="패스_39449" data-name="패스 39449" d="M34.489,60.119,23.425,54.733,3.238,98.364l4.806,2.34-4.806-2.34-.155.32A27.128,27.128,0,0,0,.448,112.9a.694.694,0,0,0,.128.63,2.124,2.124,0,0,0,1.728.841.693.693,0,0,0,.575-.288l1.034-.75a27.14,27.14,0,0,0,7.781-8.781l.908-1.635Z" fill="#c7c7c7"/>
        <path id="패스_39450" data-name="패스 39450" d="M31.77,61.589a9.616,9.616,0,0,1-7.824-3.808c-1.553-2.3-.569-4.322,2.2-4.517a9.616,9.616,0,0,1,7.824,3.808c1.553,2.3.569,4.321-2.2,4.517" fill="#d3ebff"/>
        <path id="패스_39451" data-name="패스 39451" d="M32.677,59.725a9.616,9.616,0,0,1-7.824-3.808c-1.553-2.3-.569-4.322,2.2-4.517a9.616,9.616,0,0,1,7.824,3.808c1.553,2.3.569,4.321-2.2,4.517" fill="#d3ebff"/>
        <path id="패스_39452" data-name="패스 39452" d="M31.61,61.917a9.616,9.616,0,0,1-7.824-3.808c-1.553-2.3-.569-4.322,2.2-4.517A9.616,9.616,0,0,1,33.809,57.4c1.553,2.3.569,4.321-2.2,4.517" fill="#c7c7c7"/>
        <path id="패스_39453" data-name="패스 39453" d="M31.61,61.917a9.614,9.614,0,0,1-7.823-3.808,3.4,3.4,0,0,1-.685-2.54c-.755.845-.751,2.134.191,3.527A9.618,9.618,0,0,0,31.116,62.9c1.653-.117,2.663-.888,2.883-1.978a3.435,3.435,0,0,1-2.389.99" fill="#dedede"/>
        <rect id="사각형_5599" data-name="사각형 5599" width="2.724" height="12.305" transform="translate(23.266 55.062) rotate(-64.046)" fill="#c7c7c7"/>
        <path id="패스_39454" data-name="패스 39454" d="M56.433,15.039,45.369,9.653,24.457,52.613l-.125.257.021.01a3.233,3.233,0,0,0,.625,2.78A9.619,9.619,0,0,0,32.8,59.469a3.229,3.229,0,0,0,2.573-1.224l.021.011Z" fill="#dedede"/>
        <path id="패스_39455" data-name="패스 39455" d="M45.766,13.461l-.73-1.07v0a.578.578,0,0,0-.569-.224l-2.254.159a7.163,7.163,0,0,0-5.363,3.624l-2.291,4.707a3.985,3.985,0,0,0-.114,4.028l.848,1.254a2.8,2.8,0,0,1-.08,2.833L25.976,47.748a.586.586,0,0,0-.011.6h0l.73,1.069v0a.582.582,0,0,0,.567.22,1.862,1.862,0,0,0,1.4-.943l9.236-18.974a3.987,3.987,0,0,0,.113-4.029l-.848-1.254a2.8,2.8,0,0,1,.08-2.832L39.529,16.9A3.434,3.434,0,0,1,42.1,15.162L44.354,15a1.862,1.862,0,0,0,1.4-.943.593.593,0,0,0,.016-.6" fill="#c7c7c7"/>
        <path id="패스_39456" data-name="패스 39456" d="M53.714,16.508A9.616,9.616,0,0,1,45.89,12.7c-1.553-2.3-.569-4.322,2.2-4.517a9.616,9.616,0,0,1,7.824,3.808c1.553,2.3.569,4.321-2.2,4.517" fill="#f7f7f7"/>
        <path id="패스_39457" data-name="패스 39457" d="M52.707,15.019a6.353,6.353,0,0,1-4.775-2.613c-1-1.476-.477-2.7,1.163-2.733a6.357,6.357,0,0,1,4.776,2.613c1,1.476.476,2.7-1.164,2.733" fill="#dedede"/>
        <path id="패스_39458" data-name="패스 39458" d="M53.782,12.977l-4.774-2.324,4.459-9.16a2.655,2.655,0,0,1,4.774,2.324Z" fill="#c7c7c7"/>
        <path id="패스_39459" data-name="패스 39459" d="M52.609,13.612a4.152,4.152,0,0,1-3.376-1.643c-.67-.992-.245-1.865.949-1.949a4.152,4.152,0,0,1,3.376,1.643c.67.992.245,1.865-.949,1.949" fill="#c7c7c7"/>
      </g>
    </g>
    <g id="그룹_16687" data-name="그룹 16687">
      <path id="패스_43694" data-name="패스 43694" d="M169.533,42.291c-.062-.041-.124-.089-.186-.138-.124-.1-.247-.172-.372-.268-9.246-6.093-20.652-8.86-31.64-6.389a39.99,39.99,0,0,0-14.394,6.8Z" transform="translate(186.904 58.598)" fill="#f6ab00" fill-rule="evenodd"/>
      <path id="패스_43695" data-name="패스 43695" d="M169.533,42.291c-.062-.041-.124-.089-.186-.138-.124-.1-.247-.172-.372-.268a43.117,43.117,0,0,0-22.7-7.284v7.69Z" transform="translate(186.904 58.598)" fill="#f1e3c6" fill-rule="evenodd"/>
      <path id="패스_43696" data-name="패스 43696" d="M166.113,74.164l19.917,1.908a41.772,41.772,0,0,0-1.245-10.5c-.041-.149-.081-.305-.122-.468a41.615,41.615,0,0,0-11.2-19.517,37.035,37.035,0,0,0-9.512-6.778c-.622-.305-1.447-.7-2.083-.981a39.943,39.943,0,0,0-6.129-2.07c-.528-.136-.995-.237-1.428-.325-2.977.609-5.1,1.955-7.9,5.486l-.136.2Z" transform="translate(186.904 58.598)" fill="#f6ab00" fill-rule="evenodd"/>
      <path id="패스_43697" data-name="패스 43697" d="M126.114,74.757l-20.232,1.935a42.507,42.507,0,0,1,1.271-10.678c.035-.151.076-.31.117-.475a42.334,42.334,0,0,1,11.381-19.861,37.911,37.911,0,0,1,9.663-6.9c.631-.309,1.47-.716,2.123-1a40.512,40.512,0,0,1,6.219-2.113c.537-.131,1.011-.241,1.457-.331,3.017.627,5.175,2,8.02,5.583l.138.214Z" transform="translate(186.904 58.598)" fill="#f1e3c6" fill-rule="evenodd"/>
      <path id="패스_43698" data-name="패스 43698" d="M111.551,53.982c7.989-11,16.243-15.113,34.015-13.517l.1-.243v76.331a28.91,28.91,0,0,1-13.822-3.22c-.4-.231-.771-.454-1.143-.691-1.041-.676-2.1-1.38-3.126-2.09-.926-.643-1.833-1.259-2.746-1.935-1.042-.785-2.145-1.61-3.125-2.462-.812-.663-1.6-1.367-2.389-2.1-1.062-.988-2.354-2.314-3.267-3.35-.6-.676-1.069-1.237-1.475-1.752h-.013c-.535-.669-.961-1.238-1.387-1.833-.156-.215-.305-.425-.433-.615a.317.317,0,0,1-.068-.108,37.946,37.946,0,0,1-4.255-7.955c-.014-.014-.014-.029-.027-.041a43.666,43.666,0,0,1-1.847-6.421c-.013-.115-.041-.21-.054-.317a.224.224,0,0,1-.014-.1c-.061-.271-.365-2.584-.372-2.592-.013-.168-.027-.331-.033-.5-.035-.23-.055-.454-.068-.677l-.041-.642v-.034a41.2,41.2,0,0,1,.636-9.242,42.368,42.368,0,0,1,4.959-13.9" transform="translate(186.904 58.598)" fill="#e59900" fill-rule="evenodd"/>
      <path id="패스_43699" data-name="패스 43699" d="M180.375,53.982c-8.132-11-16.531-15.113-34.611-13.517l-.1-.243v76.331a29.8,29.8,0,0,0,14.065-3.22c.407-.231.785-.454,1.164-.691,1.068-.676,2.142-1.38,3.181-2.09.95-.643,1.866-1.259,2.8-1.935,1.054-.785,2.176-1.61,3.174-2.462.827-.663,1.639-1.367,2.438-2.1,1.08-.988,2.389-2.314,3.325-3.35.606-.676,1.081-1.237,1.5-1.752h.014c.537-.669.971-1.238,1.4-1.833.166-.215.31-.425.448-.615a.481.481,0,0,0,.068-.108,38,38,0,0,0,4.325-7.955c.013-.014.013-.029.027-.041a42.224,42.224,0,0,0,1.879-6.421c.014-.115.042-.21.056-.317a.24.24,0,0,0,.013-.1c.062-.271.379-2.584.379-2.592.014-.168.028-.331.042-.5.027-.23.055-.454.068-.677l.041-.642v-.034a40.058,40.058,0,0,0-.653-9.242,41.763,41.763,0,0,0-5.047-13.9" transform="translate(186.904 58.598)" fill="#f1e3c6" fill-rule="evenodd"/>
      <path id="패스_43700" data-name="패스 43700" d="M145.688,40.54c15.972,3.064,22.264,19.6,21.634,35.118-.825,20.343-12.149,35-17.243,44.358a13.048,13.048,0,0,1-4.418.718V42.062Z" transform="translate(186.904 58.598)" fill="#f6ab00" fill-rule="evenodd"/>
      <path id="패스_43701" data-name="패스 43701" d="M145.633,40.54C129.66,43.6,123.369,60.139,124,75.658c.825,20.282,12.076,34.9,17.2,44.271a12.572,12.572,0,0,0,4.465.805V42.062Z" transform="translate(186.904 58.598)" fill="#f1e3c6" fill-rule="evenodd"/>
      <path id="패스_43702" data-name="패스 43702" d="M145.66,39.487c.6,0,1.087-.172,1.087-.379s-.488-.378-1.087-.378-1.087.172-1.087.378.488.379,1.087.379" transform="translate(186.904 58.598)" fill="#040000" fill-rule="evenodd"/>
      <path id="패스_43703" data-name="패스 43703" d="M145.741,116.81l1.1-.638-.015,5.449-1.1.639Z" transform="translate(186.904 58.598)" fill="#09293c"/>
      <path id="패스_43704" data-name="패스 43704" d="M145.726,122.26l1.1-.639,7.191,4.151-1.1.639Z" transform="translate(186.904 58.598)" fill="#0d2e43"/>
      <path id="패스_43705" data-name="패스 43705" d="M153.924,120.353l1.1-.639-.031,11.109-1.1.639Z" transform="translate(186.904 58.598)" fill="#09293c"/>
      <path id="패스_43706" data-name="패스 43706" d="M144.756,115.059l1.1-.639,9.167,5.294-1.1.638Z" transform="translate(186.904 58.598)" fill="#0d2e43"/>
      <path id="패스_43707" data-name="패스 43707" d="M144.756,115.06l-.031,11.109,9.167,5.293.032-11.109Zm8.16,11.351-7.19-4.151.015-5.45,7.191,4.152Z" transform="translate(186.904 58.598)" fill="#061d29"/>
      <path id="패스_43708" data-name="패스 43708" d="M145.91,122.26l-1.1-.638-.016-5.45,1.1.639Z" transform="translate(186.904 58.598)" fill="#061c29"/>
      <path id="패스_43709" data-name="패스 43709" d="M138.72,126.412l-1.1-.639,7.19-4.151,1.1.638Z" transform="translate(186.904 58.598)" fill="#0d2e43"/>
      <path id="패스_43710" data-name="패스 43710" d="M137.745,131.462l-1.1-.639-.032-11.109,1.1.639Z" transform="translate(186.904 58.598)" fill="#061c29"/>
      <path id="패스_43711" data-name="패스 43711" d="M137.713,120.353l-1.1-.639,9.167-5.292,1.1.638Z" transform="translate(186.904 58.598)" fill="#0d2e43"/>
      <path id="패스_43712" data-name="패스 43712" d="M146.88,115.061l-9.167,5.292.032,11.11,9.167-5.293Zm-8.16,11.351-.015-5.449,7.19-4.152.015,5.449Z" transform="translate(186.904 58.598)" fill="#092a3c"/>
      <path id="패스_43713" data-name="패스 43713" d="M137.658,121.468l1.1-.639-.016,5.449-1.1.639Z" transform="translate(186.904 58.598)" fill="#09293c"/>
      <path id="패스_43714" data-name="패스 43714" d="M137.642,126.917l1.1-.639,7.191,4.152-1.1.639Z" transform="translate(186.904 58.598)" fill="#0d2e43"/>
      <path id="패스_43715" data-name="패스 43715" d="M145.84,125.01l1.1-.639-.031,11.11-1.1.638Z" transform="translate(186.904 58.598)" fill="#09293c"/>
      <path id="패스_43716" data-name="패스 43716" d="M136.673,119.717l1.1-.639,9.167,5.293-1.1.638Z" transform="translate(186.904 58.598)" fill="#0d2e43"/>
      <path id="패스_43717" data-name="패스 43717" d="M136.672,119.717l-.031,11.109,9.167,5.292.032-11.109Zm8.16,11.351-7.19-4.151.015-5.45,7.191,4.151Z" transform="translate(186.904 58.598)" fill="#061d29"/>
      <path id="패스_43718" data-name="패스 43718" d="M153.987,126.917l-1.1-.639-.016-5.449,1.1.639Z" transform="translate(186.904 58.598)" fill="#061c29"/>
      <path id="패스_43719" data-name="패스 43719" d="M146.8,131.068l-1.1-.639,7.191-4.151,1.1.638Z" transform="translate(186.904 58.598)" fill="#0d2e43"/>
      <path id="패스_43720" data-name="패스 43720" d="M145.821,136.119l-1.1-.639-.032-11.109,1.1.639Z" transform="translate(186.904 58.598)" fill="#061c29"/>
      <path id="패스_43721" data-name="패스 43721" d="M145.79,125.01l-1.1-.639,9.167-5.292,1.1.639Z" transform="translate(186.904 58.598)" fill="#0d2e43"/>
      <path id="패스_43722" data-name="패스 43722" d="M154.957,119.717l-9.168,5.292.032,11.109,9.167-5.292Zm-8.16,11.351-.015-5.45,7.19-4.151.015,5.45Z" transform="translate(186.904 58.598)" fill="#092a3c"/>
      <path id="패스_43723" data-name="패스 43723" d="M145.836,116.316a28.811,28.811,0,0,1-14.5-3.564c-.186-.11-.352-.22-.524-.33a62.383,62.383,0,0,1,8.895,6.547c.069.041.151.082.213.124a11.825,11.825,0,0,0,5.961,1.474c2.09,0,5.007-4.251-.044-4.251" transform="translate(186.904 58.598)" fill="#606064" fill-rule="evenodd"/>
      <path id="패스_43724" data-name="패스 43724" d="M159.883,113.035a28.767,28.767,0,0,1-12.69,3.255c-5.732.221-3.318,4.312-1.059,4.274a12.062,12.062,0,0,0,5.564-1.354c.165-.09.323-.186.475-.282a62.294,62.294,0,0,1,8.866-6.6c-.378.24-.757.468-1.156.7" transform="translate(186.904 58.598)" fill="#f1e3c6" fill-rule="evenodd"/>
      <g id="그룹_16645" data-name="그룹 16645" transform="translate(186.904 58.598)" opacity="0.57">
        <g id="그룹_16644" data-name="그룹 16644">
          <g id="그룹_16643" data-name="그룹 16643" clip-path="url(#clip-path-11)">
            <path id="패스_43725" data-name="패스 43725" d="M159.883,113.035c-8.048,4.488-20.838,4.351-28.548-.283-.186-.11-.352-.22-.524-.33a62.517,62.517,0,0,1,8.895,6.547c.068.041.151.082.213.124a12.968,12.968,0,0,0,11.779.117c.165-.09.323-.186.475-.282a62.294,62.294,0,0,1,8.866-6.6c-.378.24-.757.468-1.156.7" fill="#e59900" fill-rule="evenodd"/>
          </g>
        </g>
      </g>
      <g id="그룹_16648" data-name="그룹 16648" transform="translate(186.904 58.598)" opacity="0.18">
        <g id="그룹_16647" data-name="그룹 16647">
          <g id="그룹_16646" data-name="그룹 16646" clip-path="url(#clip-path-12)">
            <path id="패스_43726" data-name="패스 43726" d="M134.6,95.787c-17.74-13.423-15.077-31.639-15.214-33.969A29.618,29.618,0,0,1,125.6,41.587s-.014,0-.014.013c-.055.026-.089.053-.144.079-1.334.775-4.448,3.1-4.571,3.21-.151.1-1.28,1.043-1.629,1.365-.13.131-.267.256-.4.387-.39.374-.794.762-1.17,1.149l-.308.282c-.041.053-.1.1-.13.158-.178.177-.343.374-.514.552-.239.256-.472.5-.67.734-.541.617-1.239,1.458-1.725,2.114-.035.053-.062.092-.09.144-.458.6-.9,1.221-1.32,1.865l-.171.249c-.1.138-.178.283-.274.44-.076.112-.143.23-.213.335-.082.125-.163.242-.232.347a41.869,41.869,0,0,0-2.553,4.963c-.171.414-.363.9-.547,1.392-.165.4-.309.8-.445,1.2a2.3,2.3,0,0,1-.1.243q-.083.266-.185.552c-.013.052-.041.117-.054.17-.124.348-.24.748-.363,1.149-.028.111-.055.216-.1.334-.069.269-.151.525-.212.788a39.5,39.5,0,0,0-.89,4.319c-.013.151-.041.322-.068.486-.028.21-.055.427-.082.63-.048.48-.1.946-.131,1.346s-.068.82-.082,1.273c-.013.145-.013.283-.027.427-.014.617-.042,1.241-.042,1.779,0,.748.056,1.752.124,2.514s.185,1.713.308,2.58c.013.065.027.131.041.19.028.21.055.413.1.6.116.722.349,1.673.52,2.382.082.321.178.683.294,1.057a.216.216,0,0,1,.014.065c.109.349.219.7.342,1.031a3.1,3.1,0,0,0,.144.44c.068.2.137.414.205.59.226.67.6,1.563.883,2.219.4.893,1,2.048,1.465,2.915.335.617.835,1.418,1.211,2.008.1.158.226.361.4.624a40.34,40.34,0,0,0,4.325,5.415c.178.191.343.368.5.539.582.591,1.355,1.378,1.978,1.923.1.085.185.177.281.269.459.4.944.827,1.334,1.175l1.65,1.366c.541.439,1.279.991,1.841,1.4.541.387,1.034.735,1.5,1.07l.11.079c.055.039.123.085.171.125.986.676,1.882,1.266,2.9,1.91l.028.013a.928.928,0,0,0,.116.079c0,.013.014.013.028.026.137.072.273.164.417.256l.041.039c.253.151.513.309.725.453l1.321.821c.171.105.336.21.521.315,7.665,4.417,20.381,4.549,28.375.269.4-.223.78-.44,1.157-.67.274-.17.609-.387.986-.623.116-.072.226-.151.335-.217l.362-.216c.124-.092.254-.171.391-.263l.568-.361c.157-.1.342-.23.52-.348.349-.23.712-.459,1.047-.7h.014c.609-.413,1.2-.814,1.725-1.182.493-.367.924-.688,1.327-.984l.281-.19.137-.118c.534-.4,1.006-.762,1.41-1.1.821-.644,1.628-1.326,2.423-2.035,1.074-.959,2.375-2.246,3.305-3.25.6-.656,2.471-2.9,2.9-3.479.165-.209,1.328-1.831,1.841-2.632-.458.309-27.527,15.675-46.5,1.326" fill="#f6ab00" fill-rule="evenodd"/>
          </g>
        </g>
      </g>
      <g id="그룹_16651" data-name="그룹 16651" transform="translate(186.904 58.598)" opacity="0.35">
        <g id="그룹_16650" data-name="그룹 16650">
          <g id="그룹_16649" data-name="그룹 16649" clip-path="url(#clip-path-13)">
            <path id="패스_43727" data-name="패스 43727" d="M173.717,52.975a11.675,11.675,0,1,1-11.673-11.147,11.422,11.422,0,0,1,11.673,11.147" fill="#fff" fill-rule="evenodd"/>
          </g>
        </g>
      </g>
    </g>
    <g id="그룹_16685" data-name="그룹 16685">
      <path id="패스_43730" data-name="패스 43730" d="M51.964,95.286a8.005,8.005,0,0,0-1.6-.482l-.442-.086A10.183,10.183,0,0,0,44.038,95.8l-3.22-1.86-.058-.009c-4.714-3.331-15.485-6.6-27.278,19.22-2.158,1.395-3.866,2.661-6.185,4.384a23.435,23.435,0,0,0-4.175,3.962l-.158.214c-.33.422-.659.846-.946,1.291-1.765,2.727-2.7,5.834-1.436,9.059a5.756,5.756,0,0,0,3.241,3.106l7.3,4.279S61.13,111.6,61.155,111.178l.062-10.618s-9.153-5.23-9.253-5.274" transform="translate(186.904 58.598)" fill="#edeef3"/>
      <path id="패스_43731" data-name="패스 43731" d="M8.758,136.727a6.2,6.2,0,0,0,5.026,3.594,7.826,7.826,0,0,0,4.788-1.154q4.32-2.454,8.64-4.915,10.6-6.028,21.2-12.06,4.515-2.571,9.031-5.137c3.866-2.2,6.976-5.286,6.808-10.109-.1-2.872-1.339-5.783-4.109-6.989-2.888-1.257-6.04-.6-8.695.914,0,0-13.976-17.677-29.789,16.946l.094-.054c-.058.035-.094.054-.094.054-2.156,1.392-3.865,2.66-6.183,4.383a22.04,22.04,0,0,0-5.279,5.469c-1.765,2.724-2.7,5.834-1.437,9.058" transform="translate(186.904 58.598)" fill="#feffff"/>
      <path id="패스_43734" data-name="패스 43734" d="M78.548,137.987a4.506,4.506,0,0,0-.911-.269l-.253-.048a5.793,5.793,0,0,0-3.358.658L72.2,137.275a7.418,7.418,0,0,0-1.2-.692l-.02-.013H70.97a6.07,6.07,0,0,0-3.114-.542l-.14.021c-3.023.36-6.925,3.141-11.013,12.233-1.223.8-2.191,1.527-3.506,2.515a13.344,13.344,0,0,0-2.363,2.269l-.089.122c-.186.241-.372.484-.535.738a5.535,5.535,0,0,0-.787,5.161,3.279,3.279,0,0,0,1.855,1.758l4.168,2.411S83.819,147.243,83.832,147v-6.044s-5.228-2.947-5.284-2.971" transform="translate(186.904 58.598)" fill="#edeef3"/>
      <path id="패스_43735" data-name="패스 43735" d="M54.093,161.717a3.53,3.53,0,0,0,2.872,2.029,4.453,4.453,0,0,0,2.722-.673q2.452-1.41,4.9-2.826,6.012-3.466,12.027-6.934,2.561-1.479,5.123-2.954c2.193-1.266,3.953-3.032,3.842-5.777a4.3,4.3,0,0,0-2.362-3.964,5.514,5.514,0,0,0-4.946.549s-8.014-10.015-16.9,9.744l.054-.031-.054.031c-1.222.8-2.191,1.527-3.505,2.515a12.567,12.567,0,0,0-2.986,3.13,5.527,5.527,0,0,0-.788,5.161" transform="translate(186.904 58.598)" fill="#feffff"/>
    </g>
  </g>
</svg>
